<?xml version="1.0" encoding="utf-8"?>
<!-- Generator: Adobe Illustrator 26.0.1, SVG Export Plug-In . SVG Version: 6.00 Build 0)  -->
<svg version="1.1" id="Layer_1" xmlns="http://www.w3.org/2000/svg" xmlns:xlink="http://www.w3.org/1999/xlink" x="0px" y="0px"
	 viewBox="0 0 24 24" style="enable-background:new 0 0 24 24;" xml:space="preserve">
<style type="text/css">
	.st0{fill:#018343;}
</style>
<path class="st0" d="M10.6,10.8c-0.1-0.3-0.2-0.6-0.3-0.9c-0.1-0.3-0.2-0.6-0.3-0.9C10,8.8,9.9,8.5,9.8,8.3h0
	C9.7,8.7,9.6,9.1,9.5,9.5C9.4,10,9.2,10.5,9.1,11c-0.1,0.5-0.3,0.9-0.4,1.3h2.4c-0.1-0.2-0.1-0.4-0.2-0.7
	C10.8,11.3,10.7,11.1,10.6,10.8L10.6,10.8z M19.4,0.8H4.6c-2.3,0-4.1,1.8-4.1,4.1v14.3c0,2.3,1.8,4.1,4.1,4.1h14.9
	c2.3,0,4.1-1.8,4.1-4.1V4.9C23.5,2.6,21.7,0.8,19.4,0.8z M14.6,16.6h-2c-0.1,0-0.1,0-0.2-0.1l-0.8-2.3H8.1l-0.7,2.3
	c0,0.1-0.1,0.1-0.2,0.1H5.4c-0.1,0-0.1-0.1-0.1-0.2l3.1-8.9c0-0.1,0.1-0.2,0.1-0.3c0-0.2,0.1-0.4,0.1-0.6c0,0,0-0.1,0.1-0.1h2.5
	c0.1,0,0.1,0,0.1,0.1l3.5,9.9C14.7,16.6,14.7,16.6,14.6,16.6L14.6,16.6z M17.8,16.5c0,0.1,0,0.2-0.1,0.2h-1.9
	c-0.1,0-0.1-0.1-0.1-0.2V9.1c0-0.1,0-0.1,0.1-0.1h1.9c0.1,0,0.1,0,0.1,0.1V16.5z M17.6,7.8c-0.2,0.2-0.5,0.4-0.9,0.3
	c-0.3,0-0.6-0.1-0.9-0.3c-0.2-0.2-0.3-0.6-0.3-0.9c0-0.3,0.1-0.6,0.3-0.9c0.2-0.2,0.5-0.3,0.9-0.3c0.4,0,0.7,0.1,0.9,0.3
	C17.9,6.3,18,6.6,18,6.9C18,7.3,17.9,7.6,17.6,7.8L17.6,7.8z"/>
</svg>
