<?xml version="1.0" encoding="utf-8"?>
<!-- Generator: Adobe Illustrator 26.0.1, SVG Export Plug-In . SVG Version: 6.00 Build 0)  -->
<svg version="1.1" id="Layer_1" xmlns="http://www.w3.org/2000/svg" xmlns:xlink="http://www.w3.org/1999/xlink" x="0px" y="0px"
	 viewBox="0 0 24 24" style="enable-background:new 0 0 24 24;" xml:space="preserve">
<style type="text/css">
	.st0{fill:#018343;}
</style>
<g id="c133de6af664cd4f011a55de6b001b19">
	<path class="st0" d="M22,0.8l-1.9,20.3L12,23.2l-8.1-2.2L2,0.8H22z M18.2,4.9H12H5.7L6,7.3h6h0.3L12,7.5L6.2,9.9l0.2,2.4l5.6,0l3,0
		l-0.2,3.2L12,16.3v0l0,0l-2.7-0.7l-0.2-2h0H6.5h0l0.3,3.8L12,19v0l0,0l5.1-1.5l0.7-7.6H12h0l0,0l6-2.6L18.2,4.9z"/>
</g>
</svg>
