<?xml version="1.0" encoding="utf-8"?>
<!-- Generator: Adobe Illustrator 26.0.1, SVG Export Plug-In . SVG Version: 6.00 Build 0)  -->
<svg version="1.1" id="Layer_1" xmlns="http://www.w3.org/2000/svg" xmlns:xlink="http://www.w3.org/1999/xlink" x="0px" y="0px"
	 viewBox="0 0 24 24" style="enable-background:new 0 0 24 24;" xml:space="preserve">
<style type="text/css">
	.st0{fill:#008443;}
</style>
<path class="st0" d="M22.2,0.8H1.8c-0.6,0-1,0.4-1,1v20.5c0,0.6,0.4,1,1,1h20.5c0.6,0,1-0.4,1-1V1.8C23.2,1.2,22.8,0.8,22.2,0.8z
	 M5.6,16.2l-2-2c-0.7-0.7-0.9-1.8-0.5-2.7l2.4-5.4l0,0V16.2z M6.1,5.6l5.4-2.4c0.9-0.4,2-0.2,2.7,0.5l2,2L6.1,5.6L6.1,5.6z
	 M6.8,17.4c-0.3-0.3-0.5-0.7-0.5-1.1V6.9l10.7,10.7H7L6.8,17.4z M17.6,20.7c0,0.2-0.2,0.4-0.4,0.4h-6.5c-0.1,0-0.2,0-0.3-0.1
	l-1.8-1.8l0,0l-0.8-0.8h9.8V20.7z M21.1,17.2c0,0.2-0.2,0.4-0.4,0.4h-2.5L6.9,6.4h9.4c0.4,0,0.8,0.2,1.1,0.5l1.8,1.8l0,0l1.8,1.8
	c0.1,0.1,0.1,0.2,0.1,0.3V17.2z"/>
</svg>
