<?xml version="1.0" encoding="utf-8"?>
<!-- Generator: Adobe Illustrator 26.0.1, SVG Export Plug-In . SVG Version: 6.00 Build 0)  -->
<svg version="1.1" id="Layer_1" xmlns="http://www.w3.org/2000/svg" xmlns:xlink="http://www.w3.org/1999/xlink" x="0px" y="0px"
	 viewBox="0 0 24 24" style="enable-background:new 0 0 24 24;" xml:space="preserve">
<style type="text/css">
	.st0{fill:#018343;}
</style>
<g>
	<path class="st0" d="M20.2,1.5H3.8c-1.27,0-2.3,1.03-2.3,2.3v16.4c0,1.27,1.03,2.3,2.3,2.3h16.4c1.27,0,2.3-1.03,2.3-2.3V3.8
		C22.5,2.53,21.47,1.5,20.2,1.5z M5.67,13c0-2.39,1.58-3.94,4.03-3.94c0.38,0,0.67,0.03,1.02,0.12V5.61h2.34v10.85
		c-1.2,0.23-2.08,0.32-3.04,0.32C7.16,16.78,5.67,15.48,5.67,13z M16.79,14.66c0,1.87-0.14,2.77-0.55,3.55
		c-0.38,0.75-0.88,1.22-1.92,1.73l-2.18-1.03c1.03-0.49,1.54-0.91,1.86-1.57c0.33-0.67,0.44-1.45,0.44-3.48V9.23h2.34V14.66z
		 M16.79,8.03h-2.34v-2.4h2.34V8.03z"/>
	<path class="st0" d="M8.05,12.96c0,1.25,0.65,1.93,1.86,1.93c0.26,0,0.47-0.02,0.81-0.06v-3.76c-0.27-0.09-0.5-0.12-0.79-0.12
		C8.74,10.95,8.05,11.68,8.05,12.96z"/>
</g>
</svg>
