<?xml version="1.0" encoding="utf-8"?>
<!-- Generator: Adobe Illustrator 26.0.1, SVG Export Plug-In . SVG Version: 6.00 Build 0)  -->
<svg version="1.1" id="Layer_1" xmlns="http://www.w3.org/2000/svg" xmlns:xlink="http://www.w3.org/1999/xlink" x="0px" y="0px"
	 viewBox="0 0 24 24" style="enable-background:new 0 0 24 24;" xml:space="preserve">
<style type="text/css">
	.st0{fill:#008443;}
</style>
<g>
	<rect x="6.5" y="10.1" class="st0" width="1.3" height="1.3"/>
	<rect x="4.4" y="10.1" class="st0" width="1.3" height="1.3"/>
	<rect x="6.5" y="8" class="st0" width="1.3" height="1.3"/>
	<rect x="8.6" y="10.1" class="st0" width="1.3" height="1.3"/>
	<path class="st0" d="M8.2,15.2c0.2,0,0.4-0.2,0.4-0.4c0-0.1,0-0.1,0-0.2c0,0.1-0.1,0.1-0.2,0.1c-0.1,0-0.2-0.1-0.2-0.2
		c0-0.1,0-0.1,0.1-0.1c0,0-0.1,0-0.2,0c-0.2,0-0.4,0.2-0.4,0.4C7.8,15,7.9,15.2,8.2,15.2z"/>
	<path class="st0" d="M13.8,12.7c-0.7,0.8-2.9,0.8-3.6,0c-0.2,0.6-3.5,1-4.1,0.1c-0.5,0.5-2.5,0.8-3.4-0.2c0.2,0.6-0.7,0.7-1.2,0.9
		c0,0,0,0,0,0h17.2c0.1-0.1,0.1-0.2,0.2-0.3c-0.4-0.1-0.8-0.2-1-0.4C17.3,13.6,14,13.3,13.8,12.7z"/>
	<path class="st0" d="M22.2,0.8H1.8c-0.6,0-1,0.4-1,1v20.5c0,0.6,0.4,1,1,1h20.5c0.6,0,1-0.4,1-1V1.8C23.2,1.2,22.8,0.8,22.2,0.8z
		 M21.3,12.6c-0.2,0.6,0.8,0.8,1.3,0.9h-3.8c-2,3.6-5.5,5.5-10.1,5.5c-2.9,0-4.8-1.2-5.9-2.6c0.4,0,0.7,0.1,1.1,0.1
		c1.8,0,3.2-0.5,3.3-0.5c0.2-0.1,0.3-0.3,0.3-0.5c-0.1-0.2-0.3-0.3-0.5-0.3c0,0-2.4,0.8-4.7,0.3c-0.3-0.6-0.5-1.3-0.6-1.9H1.4
		c0,0,0.1,0,0.1,0c-0.1-0.3-0.1-0.6-0.1-0.9c0-0.5,0.1-0.8,0.1-0.8c0-0.2,0.2-0.3,0.4-0.3h1.6V9.2h2.1V7.1h4.2V5h3v4.2H15v2.1h0.2
		c1,0,1.6-0.2,1.9-0.4c-0.2-0.3-0.3-0.7-0.3-1.2c-0.2-1.7,0.8-2.6,0.9-2.6C17.8,7,18,7,18.1,7.1c0.1,0,1.2,0.7,1.7,2.2
		c1.6-0.3,2.6,0.5,2.7,0.6c0.1,0.1,0.2,0.3,0.1,0.4c0,0.1-0.6,2-3.3,2.1c-0.1,0.3-0.3,0.6-0.4,0.9C19.7,13.3,20.7,13.2,21.3,12.6z"
		/>
	<rect x="10.7" y="5.8" class="st0" width="1.3" height="1.3"/>
	<rect x="12.8" y="10.1" class="st0" width="1.3" height="1.3"/>
	<rect x="10.7" y="8" class="st0" width="1.3" height="1.3"/>
	<rect x="10.7" y="10.1" class="st0" width="1.3" height="1.3"/>
	<rect x="8.6" y="8" class="st0" width="1.3" height="1.3"/>
</g>
</svg>
