<?xml version="1.0" encoding="utf-8"?>
<!-- Generator: Adobe Illustrator 26.0.1, SVG Export Plug-In . SVG Version: 6.00 Build 0)  -->
<svg version="1.1" id="Layer_1" xmlns="http://www.w3.org/2000/svg" xmlns:xlink="http://www.w3.org/1999/xlink" x="0px" y="0px"
	 viewBox="0 0 24 24" style="enable-background:new 0 0 24 24;" xml:space="preserve">
<style type="text/css">
	.st0{fill:#018343;}
</style>
<g>
	<path class="st0" d="M11.04,22.16c-0.29-0.18-0.57-0.35-0.87-0.5c-0.06-0.06-0.14-0.1-0.22-0.13c-0.09-0.05-0.19-0.1-0.28-0.16
		c-0.14-0.1-0.28-0.18-0.43-0.25c-0.25-0.15-0.51-0.3-0.76-0.46c-0.06-0.04-0.16-0.07-0.14-0.16c0.01-0.08,0.1-0.09,0.17-0.12
		c0.18-0.08,0.38-0.11,0.55-0.22c0.06,0,0.11-0.03,0.15-0.07c0.17-0.06,0.32-0.16,0.47-0.25c0.18-0.03,0.29,0.1,0.44,0.16
		c0.32,0.19,0.64,0.37,0.97,0.56c0.02,0.01,0.04,0.02,0.06,0.03c0.13,0.1,0.27,0.17,0.4,0.24c0.15,0.08,0.28,0.22,0.47,0.22
		c0.2-0.02,0.34-0.15,0.5-0.24c0.11-0.06,0.23-0.13,0.34-0.19c0.05,0,0.07-0.03,0.09-0.06c0.17-0.06,0.32-0.16,0.47-0.25
		c0.11-0.05,0.22-0.1,0.31-0.18c0.06-0.02,0.12-0.04,0.16-0.09c0.33-0.16,0.64-0.35,0.96-0.53c0.31-0.18,0.62-0.35,0.94-0.53
		c0.15-0.08,0.29-0.17,0.44-0.25c0.32-0.17,0.63-0.33,0.93-0.53c0.18-0.07,0.34-0.18,0.5-0.28c0.06-0.01,0.12-0.04,0.15-0.09
		c0.1-0.03,0.2-0.09,0.28-0.15c0.32-0.17,0.64-0.33,0.93-0.53c0.17-0.07,0.33-0.16,0.48-0.27c0.17-0.07,0.32-0.17,0.48-0.26
		c0.09-0.05,0.12-0.13,0.12-0.22c0-0.17-0.01-0.33-0.01-0.5c0.02-0.15,0.02-0.29,0-0.44c0.02-0.16,0.02-0.33,0-0.49
		c0.02-0.14,0.02-0.27,0-0.41c0.02-0.16,0.02-0.33,0-0.49c0.02-0.15,0.02-0.29,0-0.44c0.02-0.16,0.02-0.33,0-0.49
		c0.02-0.15,0.02-0.29,0-0.44c0.02-0.16,0.02-0.33,0-0.49c0.02-0.15,0.02-0.29,0-0.44c0.02-0.16,0.02-0.33,0-0.49
		c0.02-0.15,0.02-0.29,0-0.44c0.02-0.16,0.02-0.33,0-0.49c0.02-0.15,0.02-0.29,0-0.44c0.02-0.16,0.02-0.33,0-0.49
		c0.02-0.15,0.02-0.29,0-0.44c0.02-0.16,0.02-0.33,0-0.49c0.02-0.15,0.02-0.29,0-0.44c0-0.14,0.01-0.29,0.01-0.43
		c0-0.1-0.04-0.18-0.13-0.23c-0.16-0.09-0.32-0.18-0.48-0.27c-0.03-0.02-0.06-0.04-0.09-0.06c-0.12-0.07-0.25-0.14-0.37-0.21
		c-0.3-0.16-0.58-0.35-0.89-0.49c-0.32-0.2-0.64-0.39-0.98-0.56c-0.3-0.2-0.62-0.36-0.93-0.53c-0.03-0.02-0.06-0.04-0.1-0.06
		C16.01,5.14,15.88,5.07,15.76,5c-0.16-0.1-0.32-0.2-0.49-0.27c-0.13-0.1-0.27-0.17-0.42-0.24c-0.32-0.18-0.64-0.37-0.97-0.55
		c-0.3-0.17-0.6-0.34-0.9-0.51c-0.22-0.12-0.44-0.25-0.66-0.37c-0.09-0.05-0.16-0.14-0.28-0.12c-0.21-0.02-0.33,0.14-0.5,0.21
		c-0.1,0.07-0.23,0.09-0.32,0.18c-0.06,0-0.1,0.05-0.15,0.07c-0.32,0.18-0.64,0.37-0.97,0.55C9.8,4.09,9.5,4.26,9.2,4.43
		C9.04,4.52,8.87,4.59,8.73,4.7C8.41,4.86,8.09,5.03,7.8,5.23C7.46,5.37,7.16,5.57,6.86,5.75C6.53,5.91,6.21,6.1,5.9,6.29
		C5.6,6.46,5.3,6.63,5,6.8C4.87,6.89,4.72,6.93,4.6,7.04C4.57,7.05,4.55,7.06,4.52,7.07c-0.17,0.09-0.34,0.18-0.5,0.27
		C3.94,7.39,3.91,7.47,3.91,7.57c0,0.58,0,1.16,0,1.74c0,0.78,0.01,1.56,0.01,2.33c0,0.78-0.01,1.56-0.01,2.33c0,0.8,0,1.6,0,2.4
		c0,0.1,0.03,0.18,0.11,0.22c0.16,0.09,0.32,0.18,0.47,0.26c0.16,0.1,0.33,0.2,0.5,0.28c0.3,0.19,0.61,0.37,0.94,0.53
		c0.3,0.21,0.63,0.35,1,0.37c0.15,0.01,0.3,0.01,0.44-0.06c0.14-0.02,0.25-0.09,0.35-0.18c0.03-0.03,0.06-0.06,0.09-0.09
		c0.11-0.1,0.19-0.23,0.22-0.38c0.07-0.16,0.06-0.33,0.04-0.5c0.02-0.14,0.02-0.27,0-0.41c0.02-0.17,0.02-0.35,0-0.52
		c0.02-0.14,0.02-0.27,0-0.41c0.02-0.16,0.02-0.33,0-0.49c0.02-0.15,0.02-0.29,0-0.44c0.02-0.16,0.02-0.33,0-0.49
		c0.02-0.15,0.02-0.29,0-0.44c0.02-0.17,0.02-0.35,0-0.52c0.02-0.14,0.02-0.27,0-0.41c0.02-0.17,0.02-0.35,0-0.52
		c0.02-0.14,0.02-0.27,0-0.41c0.02-0.17,0.02-0.35,0-0.52c0.02-0.14,0.02-0.27,0-0.41c0.02-0.17,0.02-0.35,0-0.52
		c0.02-0.14,0.02-0.27,0-0.41c0.02-0.17,0.02-0.33,0-0.5c0.01-0.2-0.01-0.38-0.01-0.56c0-0.05,0-0.11,0-0.16c0-0.07,0-0.14,0-0.21
		c0-0.02-0.01-0.04-0.01-0.06c0.01-0.15,0.03-0.3,0.21-0.34c0.16,0.02,0.31,0.02,0.47,0c0.16,0.02,0.31,0.02,0.47,0
		c0.13,0.01,0.27,0.02,0.31,0.18c0,0.52,0,1.04,0,1.56c0,0.47-0.01,0.93-0.01,1.4c0,0.47,0.01,0.93,0.01,1.4
		c0,0.47-0.01,0.93-0.01,1.4c0,0.47,0.01,0.93,0.01,1.4c0,0.64,0,1.28,0,1.91c-0.02,0.16-0.04,0.31-0.06,0.47
		c-0.05,0.16-0.11,0.31-0.16,0.47c-0.14,0.28-0.32,0.53-0.56,0.73c-0.08,0.06-0.17,0.12-0.25,0.18c-0.07,0.03-0.16,0.04-0.22,0.09
		c-0.16,0.05-0.31,0.09-0.47,0.14c-0.15,0.02-0.29,0.04-0.44,0.06c-0.16,0-0.31,0-0.47,0c-0.17-0.03-0.33-0.06-0.5-0.09
		c-0.16-0.05-0.31-0.09-0.47-0.14c-0.04-0.04-0.1-0.05-0.16-0.06c-0.1-0.07-0.2-0.12-0.31-0.16c-0.15-0.09-0.3-0.18-0.47-0.25
		c-0.02-0.01-0.04-0.02-0.06-0.03c-0.13-0.08-0.27-0.16-0.4-0.23c-0.31-0.18-0.62-0.35-0.94-0.53c-0.49-0.23-0.86-0.57-1.03-1.1
		c-0.03-0.16-0.06-0.31-0.06-0.47s0-0.31,0-0.47c0-0.16,0-0.31,0-0.47s0-0.31,0-0.47s0-0.31,0-0.47s0-0.31,0-0.47s0-0.31,0-0.47
		s0-0.31,0-0.47s0-0.31,0-0.47s0-0.31,0-0.47s0-0.31,0-0.47s0-0.31,0-0.47s0-0.31,0-0.47s0-0.31,0-0.47s0-0.31,0-0.47s0-0.31,0-0.47
		s0-0.31,0-0.47s0-0.31,0-0.47s0-0.31,0-0.47c0-0.16,0-0.31,0-0.47C2.5,7.32,2.52,7.18,2.55,7.03c0.03-0.07,0.06-0.15,0.09-0.22
		C2.7,6.72,2.76,6.62,2.82,6.53c0.1-0.1,0.19-0.2,0.29-0.31C3.21,6.21,3.3,6.17,3.38,6.1C3.46,6.06,3.54,6.04,3.6,5.98
		C3.91,5.8,4.23,5.62,4.55,5.44c0.3-0.17,0.6-0.34,0.9-0.51c0.13-0.08,0.27-0.16,0.4-0.24c0.03,0,0.05-0.01,0.08-0.03
		C6.24,4.5,6.56,4.33,6.86,4.14C7.18,3.97,7.49,3.8,7.79,3.61C8.1,3.45,8.41,3.28,8.7,3.09c0.14-0.08,0.29-0.16,0.43-0.24
		C9.16,2.84,9.2,2.82,9.23,2.8c0.16-0.07,0.3-0.15,0.44-0.25c0.12-0.04,0.23-0.12,0.34-0.19c0.05,0,0.08-0.05,0.12-0.07
		c0.33-0.17,0.65-0.35,0.97-0.55c0.42-0.23,0.87-0.29,1.34-0.19c0.17,0.05,0.34,0.12,0.5,0.22c0.3,0.17,0.6,0.34,0.9,0.5
		c0.31,0.21,0.64,0.37,0.97,0.55c0.02,0.01,0.04,0.03,0.06,0.04c0.13,0.08,0.26,0.17,0.4,0.22c0.3,0.19,0.61,0.37,0.94,0.53
		c0.3,0.2,0.62,0.37,0.93,0.53c0.05,0.04,0.09,0.08,0.16,0.09c0.1,0.06,0.21,0.12,0.31,0.18c0.15,0.09,0.3,0.19,0.47,0.26
		c0.02,0.01,0.04,0.02,0.06,0.04c0.13,0.08,0.27,0.16,0.4,0.23c0.31,0.18,0.62,0.35,0.94,0.53c0.3,0.17,0.6,0.34,0.9,0.51
		c0.47,0.24,0.86,0.55,1.04,1.06c0.03,0.16,0.06,0.31,0.09,0.47c0,0.16,0,0.31,0,0.47c0,0.16,0,0.31,0,0.47s0,0.31,0,0.47
		s0,0.31,0,0.47s0,0.31,0,0.47s0,0.31,0,0.47s0,0.31,0,0.47s0,0.31,0,0.47s0,0.31,0,0.47s0,0.31,0,0.47s0,0.31,0,0.47s0,0.31,0,0.47
		s0,0.31,0,0.47s0,0.31,0,0.47s0,0.31,0,0.47s0,0.31,0,0.47s0,0.31,0,0.47s0,0.31,0,0.47c0,0.16,0,0.31,0,0.47
		c-0.02,0.16-0.04,0.31-0.07,0.47c-0.07,0.18-0.16,0.36-0.27,0.52c-0.2,0.28-0.5,0.43-0.79,0.61c-0.3,0.17-0.6,0.34-0.9,0.51
		c-0.12,0.06-0.24,0.12-0.35,0.21c-0.04,0.02-0.08,0.04-0.12,0.06c-0.32,0.16-0.63,0.33-0.93,0.53c-0.32,0.16-0.63,0.34-0.94,0.53
		c-0.31,0.17-0.62,0.34-0.93,0.51c-0.15,0.09-0.31,0.18-0.46,0.27c-0.01,0.01-0.03,0.02-0.04,0.03c-0.16,0.05-0.29,0.16-0.43,0.23
		c-0.11,0.08-0.24,0.12-0.34,0.21c-0.05,0.01-0.09,0.03-0.13,0.06c-0.32,0.17-0.63,0.34-0.93,0.53c-0.32,0.17-0.63,0.34-0.93,0.53
		c-0.29,0.16-0.6,0.27-0.94,0.26c-0.06,0-0.13,0-0.19,0c-0.03,0-0.06,0-0.09-0.01C11.48,22.38,11.25,22.29,11.04,22.16z"/>
	<path class="st0" d="M11.01,8.91c0.03-0.03,0.06-0.06,0.09-0.09c0.15-0.13,0.3-0.27,0.47-0.38c0.16-0.08,0.31-0.17,0.47-0.25
		c0.3-0.1,0.59-0.2,0.9-0.26c0.16-0.02,0.31-0.04,0.47-0.06c0.16-0.01,0.31-0.02,0.47-0.03c0.16,0,0.31,0,0.47,0
		s0.31,0.01,0.47,0.01c0.16,0.02,0.31,0.03,0.47,0.05c0.31,0.06,0.63,0.13,0.93,0.22c0.16,0.07,0.31,0.14,0.47,0.21
		c0.29,0.13,0.53,0.34,0.74,0.57c0.06,0.08,0.13,0.17,0.19,0.25c0.03,0.08,0.06,0.16,0.12,0.22c0.06,0.17,0.13,0.33,0.19,0.5
		c0.02,0.13,0.05,0.25,0.07,0.38c0.06,0.4,0.09,0.54-0.41,0.53c-0.15,0-0.29,0-0.44,0c-0.1,0-0.21-0.01-0.31,0
		c-0.16,0-0.25-0.07-0.29-0.22c-0.02-0.09-0.03-0.19-0.09-0.28c-0.04-0.18-0.13-0.33-0.25-0.46c-0.12-0.16-0.27-0.28-0.46-0.36l0,0
		c-0.01-0.01-0.03-0.01-0.04-0.02c-0.27-0.12-0.55-0.18-0.84-0.21c-0.17-0.01-0.33-0.05-0.5-0.02c-0.16-0.02-0.33-0.02-0.49,0
		c-0.17,0-0.34-0.01-0.5,0.04c-0.33,0.02-0.63,0.1-0.9,0.29c-0.12,0.06-0.21,0.15-0.25,0.27c-0.11,0.15-0.14,0.32-0.12,0.5
		c-0.01,0.2,0.06,0.37,0.23,0.47c0.19,0.11,0.39,0.18,0.6,0.21c0.17,0.05,0.35,0.09,0.53,0.11c0.14,0.02,0.27,0.05,0.41,0.07
		c0.16,0.02,0.31,0.07,0.47,0.06c0.31,0.06,0.62,0.09,0.94,0.12c0.15,0.04,0.31,0.06,0.47,0.08c0.17,0.04,0.33,0.07,0.5,0.11
		c0.14,0.03,0.27,0.07,0.41,0.1c0.33,0.12,0.67,0.24,0.96,0.44c0.02,0.04,0.06,0.06,0.1,0.09c0.14,0.12,0.25,0.26,0.37,0.41
		c0.01,0.02,0.02,0.04,0.03,0.06c0.06,0.15,0.13,0.3,0.17,0.47c0.02,0.12,0.04,0.25,0.06,0.37c0,0.19,0,0.37,0,0.56
		c-0.03,0.15-0.07,0.29-0.1,0.44c-0.13,0.35-0.33,0.67-0.59,0.93c-0.01,0.01-0.03,0.02-0.04,0.02c-0.28,0.26-0.62,0.42-0.95,0.57
		c-0.15,0.05-0.29,0.09-0.44,0.14c-0.16,0.04-0.31,0.07-0.47,0.11c-0.21,0.02-0.43,0.05-0.64,0.07c-0.54,0.05-1.09,0.03-1.63-0.02
		c-0.18-0.02-0.35-0.05-0.53-0.07c-0.16-0.03-0.31-0.07-0.47-0.1c-0.16-0.05-0.31-0.1-0.47-0.16c-0.33-0.14-0.65-0.31-0.92-0.54
		c-0.08-0.09-0.17-0.16-0.25-0.25c-0.18-0.21-0.29-0.46-0.42-0.7c-0.04-0.14-0.07-0.27-0.11-0.41c-0.01-0.07-0.02-0.14-0.02-0.22
		c0-0.02,0-0.04-0.01-0.06c0-0.07-0.01-0.15-0.01-0.22c0.02-0.25,0.07-0.3,0.32-0.29c0.04,0,0.07,0,0.11,0c0.02,0,0.04,0,0.06,0
		c0.01,0,0.02,0,0.03,0c0.09,0,0.19-0.01,0.28-0.01c0.17,0.01,0.33,0.01,0.5,0.02c0.14,0.04,0.17,0.16,0.19,0.29
		c0.13,0.75,0.47,1.08,1.18,1.27c0.14,0.05,0.29,0.07,0.44,0.09c0.17,0.02,0.33,0.05,0.5,0.04c0.16,0,0.31,0,0.47,0
		c0.16,0.02,0.31,0.02,0.47,0c0.16,0.01,0.31,0,0.47-0.03c0.17,0,0.34-0.02,0.5-0.09c0.16-0.02,0.3-0.07,0.44-0.16
		c0.11-0.04,0.2-0.11,0.28-0.19c0.16-0.13,0.24-0.31,0.27-0.5c0.06-0.39,0.03-0.67-0.39-0.88c-0.2-0.1-0.41-0.16-0.63-0.2
		c-0.15-0.05-0.31-0.08-0.47-0.09c-0.14-0.04-0.29-0.06-0.44-0.07c-0.16-0.04-0.33-0.06-0.5-0.06c-0.15-0.04-0.31-0.04-0.47-0.05
		c-0.1-0.01-0.21-0.03-0.31-0.04c-0.37-0.04-0.73-0.11-1.09-0.19c-0.15-0.04-0.29-0.08-0.44-0.13c-0.34-0.13-0.66-0.29-0.94-0.53
		c-0.02-0.02-0.04-0.04-0.07-0.06c-0.25-0.27-0.38-0.59-0.46-0.94c-0.01-0.19-0.02-0.37-0.03-0.56c0.01-0.12,0.02-0.25,0.04-0.37
		C10.66,9.5,10.8,9.19,11.01,8.91z"/>
</g>
</svg>
