<?xml version="1.0" encoding="utf-8"?>
<!-- Generator: Adobe Illustrator 26.0.1, SVG Export Plug-In . SVG Version: 6.00 Build 0)  -->
<svg version="1.1" id="Layer_1" xmlns="http://www.w3.org/2000/svg" xmlns:xlink="http://www.w3.org/1999/xlink" x="0px" y="0px"
	 viewBox="0 0 24 24" style="enable-background:new 0 0 24 24;" xml:space="preserve">
<style type="text/css">
	.st0{fill:#008443;}
</style>
<g>
	<path class="st0" d="M0.8,21.2c0-6.1,0-12.2,0-18.4c0,0,0-0.1,0-0.1c0.1-0.6,0.4-1.2,1-1.5c0.3-0.2,0.7-0.3,1-0.4
		c6.1,0,12.2,0,18.4,0c0,0,0.1,0,0.1,0C22.4,1,23.2,2,23.2,3.2c0,5.9,0,11.8,0,17.7c0,1.3-1.1,2.4-2.4,2.4c-5.9,0-11.8,0-17.7,0
		c-1,0-1.7-0.5-2.2-1.4C0.9,21.7,0.8,21.4,0.8,21.2z M7.8,9.5c-0.9,0.6-1.3,1.4-1.3,2.5c0,1.1,0.5,1.9,1.3,2.5c0,0,0,0,0,0
		c-0.1,0.1-0.1,0.1-0.2,0.2c-0.9,0.8-1.3,1.8-1,3c0.4,1.5,1.7,2.5,3.4,2.3c1.4-0.2,2.6-1.5,2.6-3c0-0.8,0-1.7,0-2.5
		c0-0.1,0-0.1,0-0.3c1.5,1.3,3.4,0.8,4.4-0.3c0.5-0.6,0.7-1.4,0.7-2.2c-0.1-0.9-0.5-1.7-1.3-2.2c0.1-0.1,0.1-0.1,0.2-0.1
		c1.1-0.8,1.5-2.3,0.9-3.5C16.9,4.7,15.8,4,14.5,4c-1.6,0-3.2,0-4.8,0C9.5,4,9.3,4,9,4C7.5,4.2,6.2,5.9,6.5,7.4
		C6.6,8.3,7.1,9,7.8,9.5z"/>
	<path class="st0" d="M11.5,14c-0.8,0-1.6,0.1-2.4,0c-1-0.1-1.7-1-1.7-2c0-1,0.7-1.9,1.7-2c0.8-0.1,1.6,0,2.4,0c0,0,0,0,0,0
		C11.5,11.3,11.5,12.7,11.5,14z"/>
	<path class="st0" d="M12.5,4.9c0.9,0,1.7,0,2.6,0.1c1,0.2,1.6,1.2,1.5,2.2c-0.1,1-1,1.7-2,1.7c-0.7,0-1.4,0-2.1,0
		C12.5,7.7,12.5,6.3,12.5,4.9z"/>
	<path class="st0" d="M11.5,5c0,1.3,0,2.7,0,4c-0.1,0-0.1,0-0.2,0c-0.6,0-1.2,0-1.8,0c-1.1,0-2-0.8-2.1-1.8C7.4,6,8.1,5.1,9.3,5
		C10,4.9,10.7,5,11.5,5z"/>
	<path class="st0" d="M11.5,15c0,0.8,0.1,1.6,0,2.4c-0.1,1-1.1,1.7-2.1,1.7c-1.1-0.1-1.9-0.9-1.9-1.9c0-1.1,0.7-2,1.8-2.1
		C10,14.9,10.7,15,11.5,15z"/>
	<path class="st0" d="M16.6,12c0,1.1-0.9,2-2.1,2c-1.1,0-2-0.9-2-2c0-1.1,0.9-2,2-2C15.7,10,16.6,10.9,16.6,12z"/>
</g>
</svg>
