<?xml version="1.0" encoding="utf-8"?>
<!-- Generator: Adobe Illustrator 26.0.1, SVG Export Plug-In . SVG Version: 6.00 Build 0)  -->
<svg version="1.1" id="Layer_1" xmlns="http://www.w3.org/2000/svg" xmlns:xlink="http://www.w3.org/1999/xlink" x="0px" y="0px"
	 viewBox="0 0 24 24" style="enable-background:new 0 0 24 24;" xml:space="preserve">
<style type="text/css">
	.st0{fill:#018343;}
</style>
<g>
	<g>
		<path class="st0" d="M22.8,11L13,1.2c-0.6-0.6-1.5-0.6-2,0c0,0,0,0,0,0l-2,2l2.6,2.6c0.6-0.2,1.3-0.1,1.8,0.4
			c0.5,0.5,0.6,1.2,0.4,1.8l2.5,2.5c0.6-0.2,1.3-0.1,1.8,0.4c0.7,0.7,0.7,1.8,0,2.4c0,0,0,0,0,0c-0.7,0.7-1.8,0.7-2.4,0
			c-0.5-0.5-0.6-1.2-0.4-1.9l-2.3-2.3v6.1c0.9,0.4,1.2,1.5,0.8,2.3c-0.1,0.2-0.2,0.3-0.3,0.5c-0.7,0.7-1.8,0.7-2.4,0c0,0,0,0,0,0
			c-0.7-0.7-0.7-1.8,0-2.4c0,0,0,0,0,0c0.2-0.2,0.4-0.3,0.6-0.4V9c-0.9-0.4-1.3-1.4-0.9-2.3c0,0,0,0,0,0L7.9,4.2L1.2,11
			c-0.6,0.6-0.6,1.5,0,2l9.8,9.8c0.6,0.6,1.5,0.6,2,0l9.8-9.8C23.4,12.5,23.4,11.6,22.8,11"/>
	</g>
</g>
</svg>
