<?xml version="1.0" encoding="utf-8"?>
<!-- Generator: Adobe Illustrator 26.0.1, SVG Export Plug-In . SVG Version: 6.00 Build 0)  -->
<svg version="1.1" id="Layer_1" xmlns="http://www.w3.org/2000/svg" xmlns:xlink="http://www.w3.org/1999/xlink" x="0px" y="0px"
	 viewBox="0 0 24 24" style="enable-background:new 0 0 24 24;" xml:space="preserve">
<style type="text/css">
	.st0{fill:#008443;}
</style>
<path class="st0" d="M10.7,1.1C5.6,1.7,1.4,5.9,0.8,11c-0.6,5.3,2.5,10,7.1,11.8c0.3,0.1,0.7-0.1,0.7-0.6v-1.8c0,0-0.5,0.1-1,0.1
	c-1.6,0-2.3-1.4-2.4-2.1c-0.1-0.5-0.3-0.8-0.7-1.1c-0.3-0.1-0.5-0.1-0.5-0.2c0-0.2,0.3-0.2,0.5-0.2c0.7,0,1.2,0.8,1.5,1.1
	c0.6,0.9,1.2,1.1,1.6,1.1c0.5,0,0.8-0.1,1-0.2c0.1-0.8,0.5-1.6,1.1-2c-2.6-0.6-4.5-2-4.5-4.5c0-1.2,0.6-2.5,1.4-3.4
	C6.5,8.7,6.3,8.1,6.3,7.3c0-0.5,0-1,0.2-1.5c0-0.2,0.2-0.3,0.3-0.3H7C7.6,5.7,8.7,6,9.7,7c0.7-0.2,1.5-0.3,2.3-0.3s1.6,0.1,2.3,0.3
	c1-1,2.3-1.4,2.8-1.5h0.1c0.2,0,0.3,0.1,0.5,0.3c0,0.5,0,1,0,1.5c0,0.9-0.1,1.4-0.2,1.6c0.8,0.9,1.4,2,1.4,3.4
	c0,2.5-1.9,3.9-4.5,4.5c0.7,0.6,1.1,1.6,1.1,2.6v2.9c0,0.3,0.3,0.7,0.8,0.6c4.2-1.7,7.1-5.7,7.1-10.5C23.2,5.7,17.5,0.4,10.7,1.1z"
	/>
</svg>
