<?xml version="1.0" encoding="utf-8"?>
<!-- Generator: Adobe Illustrator 26.0.1, SVG Export Plug-In . SVG Version: 6.00 Build 0)  -->
<svg version="1.1" id="Layer_1" xmlns="http://www.w3.org/2000/svg" xmlns:xlink="http://www.w3.org/1999/xlink" x="0px" y="0px"
	 viewBox="0 0 24 24" style="enable-background:new 0 0 24 24;" xml:space="preserve">
<style type="text/css">
	.st0{fill:#018343;}
</style>
<path class="st0" d="M22.4,0.8H1.9c-0.5,0-1,0.4-1,1v20.5c0,0.5,0.4,1,1,1h20.5c0.5,0,1-0.4,1-1V1.7C23.4,1.2,22.9,0.8,22.4,0.8z
	 M5.6,22.5c-1.4,0-2.5-1.1-2.5-2.5c0-1.4,1.1-2.5,2.5-2.5c1.4,0,2.5,1.1,2.5,2.5C8.1,21.4,7,22.5,5.6,22.5z M14.6,19.8
	c0,1.9-1.3,2.7-2.5,2.7c-1.3,0-2.5-1-2.5-2.7V12c0-1.4,1.2-2.5,2.5-2.5s2.5,1,2.5,2.6V19.8z M21.2,19.8c0,1.9-1.3,2.7-2.5,2.7
	c-1.3,0-2.5-1-2.5-2.7V4c0-1.4,1.2-2.5,2.5-2.5s2.5,1,2.5,2.6V19.8z"/>
</svg>
