<?xml version="1.0" encoding="utf-8"?>
<!-- Generator: Adobe Illustrator 26.0.1, SVG Export Plug-In . SVG Version: 6.00 Build 0)  -->
<svg version="1.1" id="Layer_1" xmlns="http://www.w3.org/2000/svg" xmlns:xlink="http://www.w3.org/1999/xlink" x="0px" y="0px"
	 viewBox="0 0 24 24" style="enable-background:new 0 0 24 24;" xml:space="preserve">
<style type="text/css">
	.st0{fill:#008443;}
</style>
<path class="st0" d="M22.2,0.8H1.8c-0.6,0-1,0.4-1,1v20.5c0,0.6,0.4,1,1,1h20.5c0.6,0,1-0.4,1-1V1.8C23.2,1.2,22.8,0.8,22.2,0.8z
	 M6.1,20.1c-1.7,0-3.1-1.4-3.1-3.1C3,15.4,4.4,14,6.1,14c1.7,0,3.1,1.4,3.1,3.1C9.1,18.8,7.8,20.1,6.1,20.1z M9.9,16.6
	c-0.2-1.9-1.9-3.4-3.8-3.4c-0.5,0-1,0.1-1.4,0.3l3.7-6.1c0.1,0.5,0.2,1,0.5,1.5l2.8,5L9.9,16.6z M20.9,17.9
	c-0.2,0.8-0.7,1.4-1.4,1.9c-0.5,0.3-1,0.4-1.5,0.4c-1.1,0-2.1-0.6-2.6-1.5L9.6,8.4C9.1,7.7,9,6.9,9.3,6.1c0.2-0.8,0.7-1.4,1.4-1.9
	c0.5-0.3,1-0.4,1.5-0.4c1.1,0,2.1,0.6,2.6,1.5l5.7,10.2C21,16.3,21.1,17.1,20.9,17.9z"/>
</svg>
