<?xml version="1.0" encoding="utf-8"?>
<!-- Generator: Adobe Illustrator 26.0.1, SVG Export Plug-In . SVG Version: 6.00 Build 0)  -->
<svg version="1.1" id="Layer_1" xmlns="http://www.w3.org/2000/svg" xmlns:xlink="http://www.w3.org/1999/xlink" x="0px" y="0px"
	 viewBox="0 0 24 24" style="enable-background:new 0 0 24 24;" xml:space="preserve">
<style type="text/css">
	.st0{fill-rule:evenodd;clip-rule:evenodd;fill:#018343;}
</style>
<g id="Page-1">
	<g id="Dribbble-Light-Preview" transform="translate(-61.000000, -7639.000000)">
		<g id="icons" transform="translate(56.000000, 160.000000)">
			<path id="html-_x5B__x23_124_x5D_" class="st0" d="M23.1,7486.5L23.1,7486.5h-9.7l0.2,2.2h9.2c-0.1,2-0.5,6.1-0.7,8l-5.2,1.5v0
				l0,0l-5.2-1.8l-0.4-4.3H14l0.2,2.3l2.8,1.1h0l2.8-1l0.3-3.5h-8.8c0-0.5-0.6-6.3-0.7-6.8h12.7C23.3,7485,23.2,7485.8,23.1,7486.5
				L23.1,7486.5z M6.9,7479.8l1.8,20.4l8.3,2.1l8.3-2.1l1.8-20.4H6.9L6.9,7479.8z"/>
		</g>
	</g>
</g>
</svg>
