<?xml version="1.0" encoding="utf-8"?>
<!-- Generator: Adobe Illustrator 26.0.1, SVG Export Plug-In . SVG Version: 6.00 Build 0)  -->
<svg version="1.1" id="Layer_1" xmlns="http://www.w3.org/2000/svg" xmlns:xlink="http://www.w3.org/1999/xlink" x="0px" y="0px"
	 viewBox="0 0 24 24" style="enable-background:new 0 0 24 24;" xml:space="preserve">
<style type="text/css">
	.st0{fill:#018343;}
</style>
<path class="st0" d="M21.8,0.8H2.2c-0.8,0-1.4,0.6-1.4,1.4v19.7c0,0.8,0.6,1.4,1.4,1.4h19.7c0.8,0,1.4-0.6,1.4-1.4V2.2
	C23.2,1.4,22.6,0.8,21.8,0.8z M15.4,20.4c-1,0.9-2.5,1.4-4.4,1.4c-1.7,0-3-0.3-4-0.8c0,0,0,0,0,0v-2.2c0.6,0.3,1.3,0.6,1.9,0.7
	c0.7,0.2,1.4,0.3,2,0.3c1.1,0,2-0.3,2.5-0.7c0.6-0.5,0.9-1.2,0.9-2.2c0-1.8-1.2-2.7-3.5-2.7c-0.3,0-0.7,0-1.2,0.1
	c-0.5,0.1-0.9,0.1-1.3,0.2l-1.1-0.7l0.6-7.5h8v2.2h-5.8l-0.3,3.8c0.2,0,0.5-0.1,0.9-0.2c0.4-0.1,0.8-0.1,1.3-0.1
	c1.5,0,2.8,0.4,3.7,1.2c0.9,0.8,1.3,1.9,1.3,3.3C16.9,18.2,16.4,19.4,15.4,20.4z"/>
</svg>
