<?xml version="1.0" encoding="utf-8"?>
<!-- Generator: Adobe Illustrator 26.0.1, SVG Export Plug-In . SVG Version: 6.00 Build 0)  -->
<svg version="1.1" id="Layer_1" xmlns="http://www.w3.org/2000/svg" xmlns:xlink="http://www.w3.org/1999/xlink" x="0px" y="0px"
	 viewBox="0 0 24 24" style="enable-background:new 0 0 24 24;" xml:space="preserve">
<style type="text/css">
	.st0{fill:#008443;}
</style>
<g>
	<path class="st0" d="M19.5,13.9C19.5,13.9,19.5,13.9,19.5,13.9c0,0-0.1,0-0.1,0c-0.1,0-0.2,0-0.3,0c0,0-0.1,0-0.1,0h0
		c-0.3,0-0.6-0.1-0.8-0.1c-0.1,0-0.1-0.1-0.2-0.2l-0.2,0c0.1-0.7,0-1.4-0.1-2.1c-0.2-0.7-0.5-1.4-0.8-2L17,9.2v0C17,9.1,17,9,17,9
		c0.2-0.2,0.4-0.3,0.7-0.5c0,0,0.1,0,0.1-0.1c0.1,0,0.2-0.1,0.3-0.1c0,0,0,0,0.1,0c0,0,0,0,0,0c0.2-0.2,0.3-0.5,0.1-0.7
		c-0.1-0.1-0.2-0.2-0.3-0.2s-0.2,0-0.3,0.1l0,0c0,0,0,0-0.1,0c-0.1,0.1-0.1,0.1-0.2,0.2c0,0-0.1,0.1-0.1,0.1
		c-0.2,0.2-0.4,0.4-0.6,0.5c0,0-0.1,0-0.1,0c0,0-0.1,0-0.1,0h0l-0.2,0.1C16,8.3,15.8,8.1,15.6,8c-0.9-0.7-2-1.1-3.1-1.2l0-0.2v0
		c-0.1,0-0.1-0.1-0.1-0.2c0-0.3,0-0.5,0-0.8v0c0,0,0-0.1,0-0.1c0-0.1,0-0.2,0-0.3V4.9c0-0.2-0.2-0.5-0.4-0.5c-0.1,0-0.3,0-0.4,0.2
		c-0.1,0.1-0.1,0.2-0.1,0.3v0.1c0,0.1,0,0.2,0,0.3c0,0,0,0.1,0,0.1v0c0,0.3,0,0.5,0,0.8c0,0.1,0,0.1-0.1,0.2v0l0,0.2
		c-0.3,0-0.5,0.1-0.8,0.1C9.5,7.1,8.5,7.7,7.7,8.6L7.5,8.5h0c0,0,0,0-0.1,0s-0.1,0-0.1,0C7.1,8.3,6.8,8.1,6.7,7.9
		c0,0-0.1-0.1-0.1-0.1C6.5,7.7,6.5,7.6,6.4,7.6c0,0,0,0-0.1,0c0,0,0,0,0,0C6.2,7.4,6.1,7.4,6,7.4c-0.1,0-0.3,0-0.3,0.2
		C5.5,7.8,5.5,8.1,5.7,8.2c0,0,0,0,0,0s0,0,0.1,0c0.1,0,0.2,0.1,0.3,0.1c0,0,0.1,0,0.1,0.1C6.5,8.7,6.7,8.8,6.9,9C6.9,9,7,9.1,7,9.2
		v0l0.1,0.1c0,0,0,0.1-0.1,0.1C6.3,10.6,6,12,6.2,13.4l-0.2,0c0,0,0,0,0,0c0,0.1-0.1,0.1-0.2,0.2c-0.3,0.1-0.5,0.1-0.8,0.1
		c0,0-0.1,0-0.1,0c-0.1,0-0.2,0-0.3,0c0,0,0,0-0.1,0c0,0,0,0,0,0c-0.3,0-0.4,0.3-0.4,0.6c0,0.2,0.3,0.4,0.5,0.3c0,0,0.1,0,0.1,0
		c0,0,0,0,0,0s0.1,0,0.1,0c0.1,0,0.2-0.1,0.3-0.1c0,0,0.1,0,0.1,0h0c0.3-0.1,0.5-0.2,0.8-0.2h0c0.1,0,0.1,0,0.2,0.1c0,0,0,0,0,0
		l0.2,0c0.4,1.1,1,2.1,2,2.8c0.2,0.2,0.4,0.3,0.6,0.4l-0.1,0.2c0,0,0,0,0,0c0,0.1,0,0.2,0,0.2c-0.1,0.2-0.2,0.5-0.4,0.7v0
		c0,0,0,0.1-0.1,0.1s-0.1,0.1-0.2,0.2c0,0,0,0,0,0.1c0,0,0,0,0,0c-0.1,0.2,0,0.5,0.2,0.6c0,0,0.1,0,0.2,0c0.2,0,0.4-0.1,0.5-0.3
		c0,0,0,0,0,0c0,0,0,0,0-0.1c0-0.1,0.1-0.2,0.1-0.3l0-0.1c0.1-0.3,0.2-0.5,0.3-0.7c0-0.1,0.1-0.1,0.2-0.1c0,0,0,0,0,0l0.1-0.2
		c0.7,0.3,1.4,0.4,2.1,0.4c0.4,0,0.9,0,1.3-0.2c0.3,0,0.5-0.1,0.8-0.2l0.1,0.2c0,0,0,0,0,0c0.1,0,0.1,0.1,0.2,0.1
		c0.1,0.2,0.2,0.5,0.3,0.7v0l0,0.1c0,0.1,0,0.2,0.1,0.3c0,0,0,0,0,0.1c0,0,0,0,0,0c0.1,0.2,0.3,0.3,0.5,0.3c0.1,0,0.1,0,0.2,0
		c0.1,0,0.2-0.1,0.2-0.3c0-0.1,0-0.2,0-0.4c0,0,0,0,0,0c0,0,0,0,0-0.1c0-0.1-0.1-0.2-0.2-0.2c0,0,0-0.1-0.1-0.1v0
		c-0.2-0.2-0.3-0.5-0.4-0.7c0-0.1,0-0.2,0-0.2c0,0,0,0,0,0L15,17.6c1.2-0.7,2.2-1.9,2.6-3.3l0.2,0c0,0,0,0,0,0c0,0,0.1-0.1,0.2-0.1
		h0c0.3,0,0.5,0.1,0.8,0.2h0c0,0,0.1,0,0.1,0c0.1,0,0.2,0.1,0.3,0.1c0,0,0,0,0.1,0c0,0,0,0,0,0c0,0,0.1,0,0.1,0
		c0.2,0,0.4-0.1,0.5-0.3C19.9,14.1,19.7,14,19.5,13.9z M15.2,9.3l-2,1.4c-0.2,0.1-0.4,0.1-0.5-0.1c0,0-0.1-0.1-0.1-0.2L12.5,8
		C13.6,8.1,14.5,8.6,15.2,9.3z M11.6,11.9h0.7l0.5,0.6l-0.2,0.7l-0.6,0.3l-0.6-0.3l-0.2-0.7L11.6,11.9z M10.9,8.1L11.3,8l-0.1,2.4
		c0,0.2-0.2,0.4-0.4,0.4c-0.1,0-0.1,0-0.2,0l-2-1.4C9.3,8.7,10,8.3,10.9,8.1z M7.9,10.2l1.8,1.6c0.2,0.1,0.2,0.4,0,0.6
		c0,0.1-0.1,0.1-0.2,0.1l-2.3,0.7C7.2,12.1,7.4,11.1,7.9,10.2z M10.3,14.4l-0.9,2.2c-0.8-0.6-1.5-1.4-1.8-2.3l2.4-0.4
		c0.2,0,0.4,0.1,0.4,0.3C10.3,14.2,10.3,14.3,10.3,14.4z M13,17.2c-0.3,0.1-0.7,0.1-1,0.1c-0.5,0-1-0.1-1.5-0.2l1.2-2.1
		c0.1-0.1,0.3-0.2,0.5-0.1c0.1,0,0.1,0.1,0.2,0.2l1.2,2.1C13.3,17.1,13.1,17.2,13,17.2z M15.9,15.1c-0.4,0.6-0.9,1.1-1.4,1.4
		l-0.9-2.3c0-0.2,0-0.4,0.2-0.5c0.1,0,0.1,0,0.2,0l2.4,0.4C16.2,14.5,16.1,14.9,15.9,15.1z M16.6,13.1l-2.3-0.6
		c-0.2,0-0.3-0.3-0.3-0.5c0-0.1,0-0.1,0.1-0.2l1.8-1.6c0.3,0.4,0.5,0.9,0.6,1.4S16.6,12.6,16.6,13.1z"/>
	<path class="st0" d="M22.2,0.8H1.8c-0.6,0-1,0.4-1,1v20.5c0,0.6,0.4,1,1,1h20.5c0.6,0,1-0.4,1-1V1.8C23.2,1.2,22.8,0.8,22.2,0.8z
		 M22.2,15.4l-5.1,6.3c-0.3,0.4-0.7,0.6-1.1,0.5H8c-0.4,0-0.8-0.2-1.1-0.5l-5.1-6.3c-0.2-0.3-0.3-0.7-0.3-1.2l1.8-7.9
		c0.1-0.4,0.4-0.7,0.7-0.9l7.3-3.5c0.2,0,0.4,0,0.6,0s0.4,0,0.6,0.1l7.3,3.5c0.4,0.2,0.6,0.5,0.8,0.9h0l1.8,7.8
		C22.5,14.6,22.4,15,22.2,15.4z"/>
</g>
</svg>
