<?xml version="1.0" encoding="utf-8"?>
<!-- Generator: Adobe Illustrator 26.0.1, SVG Export Plug-In . SVG Version: 6.00 Build 0)  -->
<svg version="1.1" id="Layer_1" xmlns="http://www.w3.org/2000/svg" xmlns:xlink="http://www.w3.org/1999/xlink" x="0px" y="0px"
	 viewBox="0 0 24 24" style="enable-background:new 0 0 24 24;" xml:space="preserve">
<style type="text/css">
	.st0{fill:#018343;}
</style>
<g>
	<path class="st0" d="M3.8,23.2c5.5,0,11,0,16.4,0c1.7,0,3-1.4,3-3c0-5.5,0-10.9,0-16.4c0-1.5-1.1-2.8-2.6-3c0,0,0,0-0.1,0
		c-5.7,0-11.3,0-17,0c-0.1,0-0.1,0-0.2,0c0,0,0,0,0,0c0,0,0,0,0,0C2.1,0.9,0.9,2.1,0.8,3.3c0,0,0,0,0,0c0,0.1,0,0.2,0,0.2
		c0,5.7,0,11.4,0,17.1c0.1,0.2,0.1,0.4,0.2,0.6C1.4,22.4,2.5,23.2,3.8,23.2z M8.4,18.4c0,0.4-0.2,0.6-0.6,0.6c-0.6,0-1.2,0-1.8,0
		c-0.4,0-0.6-0.2-0.6-0.6c0-2.8,0-5.5,0-8.3c0-0.4,0.2-0.6,0.6-0.6c0.6,0,1.2,0,1.8,0c0.4,0,0.6,0.2,0.6,0.6c0,1.4,0,2.8,0,4.1
		C8.4,15.7,8.4,17.1,8.4,18.4z M10.3,9.6c0.6,0,1.3,0,1.9,0c0.4,0,0.5,0.1,0.5,0.5c0,0.2,0,0.4,0,0.6c0,0,0,0,0,0
		c0.1-0.2,0.3-0.3,0.4-0.5c0.5-0.4,1-0.7,1.6-0.7c0.7-0.1,1.4-0.1,2.1,0.2c1,0.4,1.5,1.1,1.8,2.1c0.2,0.7,0.2,1.4,0.2,2
		c0,1.6,0,3.1,0,4.7c0,0.3-0.2,0.5-0.5,0.5c-0.7,0-1.3,0-2,0c-0.4,0-0.5-0.2-0.5-0.5c0-1.4,0-2.7,0-4.1c0-0.5,0-1-0.2-1.4
		c-0.2-0.5-0.5-0.9-1.1-1c-0.6-0.1-1.2,0.1-1.5,0.6c-0.3,0.5-0.4,1-0.4,1.5c0,1.4,0,2.9,0,4.3c0,0.4-0.1,0.6-0.6,0.6
		c-0.6,0-1.2,0-1.8,0c-0.4,0-0.6-0.2-0.6-0.5c0-2.8,0-5.6,0-8.3C9.8,9.8,9.9,9.6,10.3,9.6z M6.9,5C8,5,8.8,5.8,8.8,6.9
		C8.8,8,8,8.8,6.9,8.8C5.9,8.8,5,7.9,5,6.9C5,5.8,5.9,5,6.9,5z"/>
</g>
</svg>
