<?xml version="1.0" encoding="utf-8"?>
<!-- Generator: Adobe Illustrator 26.0.1, SVG Export Plug-In . SVG Version: 6.00 Build 0)  -->
<svg version="1.1" id="Layer_1" xmlns="http://www.w3.org/2000/svg" xmlns:xlink="http://www.w3.org/1999/xlink" x="0px" y="0px"
	 viewBox="0 0 24 24" style="enable-background:new 0 0 24 24;" xml:space="preserve">
<style type="text/css">
	.st0{fill:#018343;}
</style>
<path class="st0" d="M8.4,14.8c0-0.9-0.7-1.6-1.6-1.7H6.7c-0.1,0-0.2,0-0.3,0l0,0c-0.8,0.2-1.5,0.9-1.5,1.8c0,0.1,0,0.2,0,0.3l0,0
	c0.2,1,1,1.8,2,1.9h0c0.1,0,0.2,0,0.2,0c0.8-0.1,1.2-0.9,1.2-1.8C8.5,15.2,8.5,15,8.4,14.8z M7.8,16L7.8,16
	c-0.1,0.1-0.2,0.2-0.4,0.2h0c-0.3,0-0.5-0.3-0.5-0.5c0,0,0,0,0,0v0c0-0.2,0-0.4,0.1-0.5c0,0,0-0.1,0-0.2c0-0.2-0.1-0.3-0.2-0.4
	c-0.1,0-0.2-0.1-0.3-0.1c-0.2,0-0.4,0.1-0.4,0.2c0,0.1-0.1,0.2-0.1,0.3l0,0c0,0.1-0.1,0.2-0.2,0.1c0,0-0.1,0-0.1-0.1
	c0-0.1,0-0.1,0-0.2c0-0.3,0.1-0.5,0.3-0.8c0.2-0.2,0.4-0.3,0.6-0.3c0,0,0,0,0,0c0,0,0.1,0,0.1,0c0.3,0,0.5,0.2,0.7,0.5
	c0.1,0.1,0.1,0.3,0.1,0.4c0,0.2-0.1,0.4-0.2,0.6c0,0,0,0.1,0,0.1c0,0.1-0.1,0.1-0.1,0.2s0,0.1,0,0.2c0,0.1,0.1,0.1,0.2,0.1
	c0,0,0,0,0,0c0,0,0.1,0,0.1,0c0,0,0,0,0.1,0C7.8,15.9,7.8,15.9,7.8,16C7.8,15.9,7.8,15.9,7.8,16C7.8,16,7.8,16,7.8,16z"/>
<path class="st0" d="M10.1,7c-1.7,1.4-3.1,3.2-3.8,5.3l0,0.1c-0.6,0.1-1.2,0.5-1.5,1h0c-0.2-0.2-0.5-0.4-0.6-0.6h0
	c-0.5-1,0.6-3,1.4-4.1c1.8-2.5,4.5-4.5,6-4.5c0,0,0,0,0,0c0.1,0,0.2,0,0.3,0c0.4,0.3,0.7,0.6,1,0.9v0C11.8,5.8,10.9,6.4,10.1,7z"/>
<path class="st0" d="M12.3,7.7c-0.9,0.2-1.7,0.6-2.5,1.1c0,0,0,0,0,0c0,0,0,0,0,0s0,0,0,0c0.6-0.8,1.4-1.4,2.2-1.9l0,0h0
	c0,0,0,0,0,0v0C12.1,7,12,7.2,12,7.4v0c0,0,0,0,0,0c0,0,0,0,0,0c0,0,0,0,0,0c0.6-0.4,1.3-0.6,2-0.7l0,0c0,0,0,0,0,0c0,0,0,0,0,0
	c-0.1,0.1-0.2,0.2-0.3,0.3v0c0,0,0,0,0,0s0,0,0,0c0.6,0,1.2,0.2,1.7,0.4c0,0,0,0.1,0,0.1c-0.5-0.1-1-0.2-1.5-0.2
	C13.4,7.5,12.8,7.5,12.3,7.7z"/>
<path class="st0" d="M19.9,15.8c-0.1,0-0.2-0.1-0.2-0.1h-0.1v0c-0.1-0.3-0.2-0.7-0.3-1c-0.6,0.4-1.3,0.8-2,1l-0.1,0
	c-0.7,0.2-1.5,0.3-2.3,0.3c-0.2,0-0.3,0-0.5,0c-0.6,0-1-0.2-1.2,0.3c0.7,0.2,1.4,0.3,2.1,0.3c0.3,0,0.6,0,0.8,0c0,0,0,0,0,0
	c0,0,0,0,0,0c0,0,0,0,0,0c0,0,0,0,0,0c-0.4,0.2-0.9,0.2-1.4,0.2c-0.5,0-1.1-0.1-1.5-0.3c0,0.4,0.5,0.6,0.7,0.7
	c0.2,0.1,0.3,0.1,0.5,0.1c0.2,0,0.5,0,0.8,0c1.5,0,2.9-0.5,4-1.2c0,0,0.1,0,0,0l0,0c0,0,0,0,0,0.1c-1,1-2.3,1.6-3.9,1.6
	c-0.1,0-0.2,0-0.2,0c-0.1,0-0.1,0-0.2,0c-0.7,0-1.4-0.3-1.9-0.8c-0.5-0.7,0-1.8,0.8-1.7l0.3,0c0.2,0,0.5,0,0.8,0
	c1.1,0,2.1-0.2,3-0.6c1.1-0.5,1.5-1,1.5-1.5c0,0,0-0.1,0-0.1c0-0.2-0.1-0.3-0.2-0.4c-0.3-0.2-0.7-0.4-1.1-0.5
	c-0.2,0-0.3-0.1-0.4-0.1c-0.2-0.1-0.4-0.1-0.4-0.6c0-0.2,0-0.9-0.1-1.1c0-0.5-0.1-1.1-0.5-1.4c-0.1-0.1-0.2-0.1-0.3-0.1h0
	c-0.1,0-0.1,0-0.2,0h0c-0.2,0-0.4,0.1-0.5,0.3c-0.3,0.3-0.8,0.5-1.3,0.5c-0.1,0-0.1,0-0.2,0c-0.3,0-0.6-0.1-0.9-0.1
	c-0.1,0-0.1,0-0.2,0c-0.9,0-1.7,0.7-1.8,1.6v0.2c0,0.9,0.4,1.8,1.1,2.3c0,0.1,0.1,0.1,0.1,0.2c0,0.1,0,0.2-0.1,0.2
	c-0.6,0.6-0.9,1.4-0.9,2.4c0,0.3,0,0.7,0.1,0.9v0c0,0.1,0.1,0.3,0.1,0.4l0,0c0.7,1.2,2,2.1,3.6,2.1c0.6,0,1.1-0.1,1.6-0.3l0,0
	c0.3-0.1,0.6-0.2,0.8-0.3l0,0c0.5-0.2,0.9-0.6,1.3-1c0.5-0.5,0.9-1.3,1.1-2.1c0-0.1,0-0.2,0-0.3C20,16,20,15.8,19.9,15.8z M16.9,13
	c0,0.2-0.1,0.3-0.2,0.3c-0.1,0-0.2-0.2-0.2-0.3s0.1-0.3,0.2-0.3C16.8,12.7,16.9,12.8,16.9,13z M16.3,10.8L16.3,10.8
	c0.3,0,0.4,0.2,0.5,0.7c0,0.1,0,0.2,0,0.3c0,0.1,0,0.3-0.1,0.4c-0.1,0-0.1,0-0.2,0c-0.1,0-0.1,0-0.2,0c-0.1-0.2-0.2-0.4-0.2-0.6
	C16,11.2,16,10.9,16.3,10.8z M15.5,13.2c0-0.1,0.1-0.1,0.2-0.1c0,0,0,0,0,0c0.1,0,0.1,0,0.2,0.1h0c0.1,0,0.2,0.1,0.2,0.3
	c0,0,0,0,0,0.1c-0.1,0.1-0.2,0.1-0.2,0.1C15.6,13.6,15.4,13.5,15.5,13.2C15.4,13.2,15.4,13.2,15.5,13.2z M13.3,13
	c0.1-0.1,0.3-0.2,0.5-0.2h0.1c0,0,0,0,0,0c0.2,0,0.4,0.1,0.5,0.2c0,0,0,0,0,0s0,0,0,0c0,0-0.1,0-0.2,0l0,0c-0.1,0-0.2,0-0.2,0
	c-0.2,0-0.4,0-0.5,0.1c-0.1,0-0.1,0-0.2,0c0,0-0.1,0-0.1-0.1C13.2,13.1,13.3,13,13.3,13z"/>
<path class="st0" d="M22.5,0.5H1.5c-0.6,0-1,0.5-1,1v20.9c0,0.6,0.5,1,1,1h20.9c0.6,0,1-0.5,1-1V1.5C23.5,1,23,0.5,22.5,0.5z
	 M20.7,16.2c0,0.6-0.2,1.2-0.4,1.7l0,0c-1.1,2.3-3.4,4-6.2,4c-0.2,0-0.4,0-0.6,0h0c-1.4,0-2.7-0.4-3.8-1.1c-1-0.7-1.9-1.6-2.5-2.7
	c-0.1-0.1-0.2-0.2-0.4-0.2c-0.6-0.1-1.2-0.3-1.6-0.7l0,0c-0.5-0.4-0.8-1-0.9-1.7c0-0.1,0-0.2,0-0.3c0-0.4,0.1-0.7,0.2-1l-0.6-0.5
	c-2.5-2.1,4.1-10,7.6-10h0c0.4,0,0.8,0.2,1.1,0.4c0.3,0.3,0.6,0.6,0.9,0.9L14,4.6c2.4-1,4.4-0.5,4.4,1.1l0,0
	c-0.1,0.9-0.5,1.7-1.1,2.4c-0.2,0.2-0.2,0.4-0.1,0.6c0.2,0.3,0.4,0.6,0.5,1c0.1,0.3,0.2,0.7,0.2,1c0,0.3,0,1.1,0,1.1l0.3,0.1h0
	c0.5,0.1,0.9,0.4,1.3,0.7c0.2,0.2,0.3,0.4,0.4,0.7c0,0.1,0,0.1,0,0.2c0,0.3-0.1,0.6-0.3,0.8c0.1,0.1,0.1,0.2,0.1,0.4
	c0.1,0.2,0.1,0.4,0.1,0.5C20.3,15.2,20.7,15.5,20.7,16.2L20.7,16.2z"/>
</svg>
