<?xml version="1.0" encoding="utf-8"?>
<!-- Generator: Adobe Illustrator 26.0.1, SVG Export Plug-In . SVG Version: 6.00 Build 0)  -->
<svg version="1.1" id="Layer_1" xmlns="http://www.w3.org/2000/svg" xmlns:xlink="http://www.w3.org/1999/xlink" x="0px" y="0px"
	 viewBox="0 0 24 24" style="enable-background:new 0 0 24 24;" xml:space="preserve">
<style type="text/css">
	.st0{fill:#018343;}
</style>
<g>
	<path class="st0" d="M11.9,16.8c0,0.5,0.3,2,0.6,2c0,0-0.2-8.9-0.4-8.9C11.9,9.9,11.9,16.8,11.9,16.8z"/>
	<path class="st0" d="M22.3,0.8H1.7c-0.5,0-1,0.4-1,1v20.6c0,0.5,0.4,1,1,1h20.6c0.5,0,1-0.4,1-1V1.7C23.2,1.2,22.8,0.8,22.3,0.8z
		 M13.5,18.9L13.5,18.9c-0.2,0.2-0.4,0.4-0.7,0.6l0,0c-0.2,0.8-0.3,1.7-0.4,2.6h-0.4c-0.1-1.2-0.3-2.4-0.3-2.4v0l-0.1,0
		c-0.5-0.4-4.3-3.3-4.1-8.2c0.3-5.3,3.3-7.9,4-8.4c0.4-0.4,0.4-0.6,0.4-1c0,0,0,0,0,0.1c0,0,0.3,0.7,0.6,1.1
		c0.3,0.6,2.8,2.1,3.8,6.8c0.1,0.6,0.2,1.2,0.2,1.8C16.5,15.5,14.6,17.9,13.5,18.9z"/>
</g>
</svg>
