<?xml version="1.0" encoding="utf-8"?>
<!-- Generator: Adobe Illustrator 26.0.1, SVG Export Plug-In . SVG Version: 6.00 Build 0)  -->
<svg version="1.1" id="Layer_1" xmlns="http://www.w3.org/2000/svg" xmlns:xlink="http://www.w3.org/1999/xlink" x="0px" y="0px"
	 viewBox="0 0 24 24" style="enable-background:new 0 0 24 24;" xml:space="preserve">
<style type="text/css">
	.st0{fill:#018343;}
</style>
<g>
	<path class="st0" d="M23.2,2.8c0,6.1,0,12.3,0,18.4c-0.1,0,0,0.1,0,0.1c-0.2,0.9-0.8,1.5-1.6,1.8c-0.1,0-0.3,0.1-0.4,0.1
		c-6.1,0-12.2,0-18.4,0c0-0.1-0.1,0-0.1,0c-1.1-0.3-1.9-1.2-1.9-2.3c0-5.9,0-11.8,0-17.7c0-1.3,1.1-2.4,2.4-2.4c5.9,0,11.8,0,17.7,0
		c0.8,0,1.4,0.3,1.9,1C23,2,23.1,2.4,23.2,2.8z M12,11.7c0.3,0.5,0.6,0.9,0.8,1.4c0.6,1,1.2,2,1.9,2.9c0.7,0.8,1.5,1.4,2.7,1.3
		c0.7-0.1,1.3-0.3,1.7-0.9c0.5-0.6,0.7-1.3,0.8-2.1c0.1-1.2,0-2.4-0.4-3.6c-0.4-1.2-1-2.3-2-3.2c-1.2-1-2.6-1-3.8-0.1
		c-0.4,0.3-0.7,0.6-1,1c-0.2,0.2-0.3,0.4-0.5,0.6c-0.1-0.1-0.2-0.2-0.2-0.3c-0.4-0.5-0.8-0.9-1.3-1.3c-1.3-0.9-2.8-0.9-4,0.1
		C6,8,5.6,8.5,5.2,9.2c-0.6,1.1-1,2.3-1.1,3.6c-0.1,0.8-0.1,1.7,0.2,2.5c0.6,1.7,2.4,2.5,3.9,1.6c0.5-0.2,0.8-0.6,1.1-1
		c0.7-0.8,1.2-1.7,1.7-2.6C11.4,12.8,11.7,12.3,12,11.7z"/>
	<path class="st0" d="M18.4,13.4c0,0.5,0,0.9-0.1,1.4c-0.3,0.9-1.2,1.1-1.9,0.5c-0.4-0.3-0.6-0.7-0.9-1.2c-0.9-1.3-1.6-2.6-2.4-3.9
		C13,10.1,13,10,13,9.9c0.3-0.5,0.7-1,1.1-1.3c0.7-0.6,1.6-0.7,2.3-0.1c0.7,0.5,1.1,1.3,1.4,2.1C18.2,11.5,18.4,12.4,18.4,13.4z"/>
	<path class="st0" d="M5.8,13.6c0.1-1.5,0.4-2.9,1.2-4.1C7.2,9.2,7.4,9,7.6,8.9c0.6-0.5,1.3-0.6,2-0.1c0.6,0.4,1,0.9,1.4,1.4
		c0.2,0.2,0.2,0.3,0,0.6c-0.8,1.2-1.6,2.5-2.4,3.7c-0.2,0.3-0.4,0.6-0.7,0.8c-0.7,0.6-1.6,0.3-1.9-0.5C5.8,14.3,5.8,14,5.8,13.6z"/>
</g>
</svg>
