<?xml version="1.0" encoding="utf-8"?>
<!-- Generator: Adobe Illustrator 26.0.1, SVG Export Plug-In . SVG Version: 6.00 Build 0)  -->
<svg version="1.1" id="Layer_1" xmlns="http://www.w3.org/2000/svg" xmlns:xlink="http://www.w3.org/1999/xlink" x="0px" y="0px"
	 viewBox="0 0 24 24" style="enable-background:new 0 0 24 24;" xml:space="preserve">
<style type="text/css">
	.st0{fill:#018343;}
	.st1{display:none;}
</style>
<g>
	<path class="st0" d="M21.6,0.8H2.4c-0.9,0-1.6,0.7-1.6,1.6v19.2c0,0.9,0.7,1.6,1.6,1.6h19.2c0.9,0,1.6-0.7,1.6-1.6V2.4
		C23.2,1.5,22.5,0.8,21.6,0.8z M21.6,21.5c-0.1-0.1-0.2-0.2-0.3-0.3c-0.5-0.4-1.1-0.8-1.7-1.1c-0.6-0.2-1.2-0.6-1.7-1
		c-0.4-0.3-0.6-0.7-0.8-1.2c-0.1-0.1,0.1-0.2,0.2-0.2c0.5-0.2,1.1-0.4,1.6-0.4c0.4,0,0.7,0,1.1-0.1c0,0,0.1,0,0.2,0
		c-0.1-0.1-0.2-0.2-0.2-0.3c-0.7-0.5-1.4-1-2.1-1.4c-0.4-0.2-0.9-0.4-1.4-0.5c-0.6-0.1-0.9-0.4-1.2-1c-0.3-0.7-0.7-1.4-1-2.1
		c-0.3-0.6-0.5-1.1-0.7-1.7c-0.4-1-1-1.8-1.7-2.6c-1.1-1.2-2.4-2.2-4-2.9c-0.3-0.1-0.7-0.2-1-0.2c-0.3,0-0.6,0-0.9-0.1
		c-0.1,0-0.3-0.1-0.4-0.2c-0.5-0.5-1.2-0.8-1.9-1c-0.2-0.1-0.4-0.1-0.5,0c-0.2,0-0.4,0.3-0.3,0.5C3,3.9,3.1,4.2,3.2,4.4
		c0.1,0.2,0.3,0.4,0.4,0.6c0.6,0.7,0.9,1.5,1.1,2.3c0.2,0.5,0.4,1,0.6,1.5C5.5,9,5.7,9.2,5.9,9.4c0.2,0.2,0.3,0.5,0.2,0.8
		C6,10.6,5.8,11,5.7,11.4c-0.3,1.2-0.2,2.4,0.3,3.5c0.1,0.2,0.2,0.4,0.5,0.6c0.2,0.1,0.2,0.1,0.2-0.1c0-0.3,0.1-0.7,0.1-1
		c0.1-0.7,0.4-1.2,0.9-1.7c0.8,1.9,1.7,3.7,3.1,5.1c-0.1,0-0.2-0.1-0.2-0.2c-0.5-0.4-0.9-0.8-1.4-1.2c-0.6-0.5-1-1.2-1.4-1.9
		c0-0.1-0.1-0.2-0.1-0.3c0,0,0,0-0.1,0c0,0.2-0.1,0.4-0.1,0.6c0,0.3-0.1,0.5-0.1,0.8c-0.1,0.6-0.7,0.9-1.3,0.5
		c-0.4-0.3-0.6-0.6-0.8-1c-0.4-0.9-0.5-1.9-0.4-3c0.1-0.6,0.2-1.2,0.4-1.7c0.1-0.3,0-0.5-0.2-0.8C5,9.2,4.8,8.7,4.5,8.2
		C4.3,7.7,4.2,7.1,4,6.5C3.9,6.3,3.7,6.1,3.6,5.9C3.5,5.6,3.3,5.4,3.1,5.2C2.8,4.7,2.4,4.3,2.3,3.7c0-0.1,0-0.2,0-0.3
		C2.4,3.3,2.4,3.1,2.5,3c0.2-0.4,0.6-0.5,1-0.4c0.9,0.1,1.6,0.5,2.3,1c0.2,0.2,0.5,0.3,0.8,0.3c0.9,0,1.8,0.3,2.6,0.8
		c2,1.2,3.6,2.7,4.7,4.7c0.3,0.5,0.5,1.1,0.8,1.7c0.4,0.9,0.9,1.8,1.3,2.8c0.2,0.3,0.4,0.5,0.7,0.6c1.2,0.4,2.2,1.2,3.2,2
		c0.4,0.3,0.7,0.7,0.9,1c0.1,0.1,0.1,0.2-0.1,0.2c-0.4,0.1-0.8,0.2-1.2,0.3c-0.5,0.1-1,0.2-1.6,0.3c0.1,0.2,0.2,0.3,0.3,0.4
		c0.2,0.2,0.5,0.4,0.7,0.5c0.7,0.4,1.3,0.9,1.9,1.6c0.1,0.1,0.2,0.2,0.3,0.3C21.4,21.1,21.5,21.3,21.6,21.5
		C21.6,21.4,21.6,21.5,21.6,21.5z M6.9,7C6.7,6.6,6.5,6.2,6.2,5.8c0.4-0.2,0.7,0,0.9,0.3C7.3,6.5,7.2,6.8,6.9,7z"/>
	<path class="st1" d="M21,20.6c-0.5-0.7-1.1-1.2-1.9-1.6c-0.3-0.1-0.5-0.3-0.7-0.5c-0.1-0.1-0.2-0.2-0.3-0.4
		c0.6-0.1,1.1-0.2,1.6-0.3c0.4-0.1,0.8-0.2,1.2-0.3c0.1,0,0.1-0.1,0.1-0.2c-0.3-0.4-0.6-0.7-0.9-1c-1-0.8-2-1.5-3.2-2
		c-0.3-0.1-0.6-0.3-0.7-0.6c-0.4-0.9-0.9-1.8-1.3-2.8c-0.3-0.6-0.5-1.2-0.8-1.7c-1.1-2-2.8-3.5-4.7-4.7C8.4,4.1,7.5,3.9,6.6,3.8
		c-0.3,0-0.5-0.1-0.8-0.3C5.2,3,4.4,2.6,3.5,2.5c-0.4,0-0.8,0.1-1,0.4C2.4,3.1,2.4,3.3,2.3,3.5c0,0.1,0,0.2,0,0.3
		c0.1,0.6,0.5,1,0.8,1.4c0.2,0.2,0.4,0.4,0.5,0.7C3.7,6.1,3.9,6.3,4,6.5c0.2,0.6,0.4,1.1,0.6,1.7c0.2,0.5,0.5,1,0.8,1.4
		c0.2,0.3,0.3,0.4,0.2,0.8c-0.2,0.6-0.3,1.1-0.4,1.7c-0.1,1,0,2,0.4,3c0.2,0.4,0.4,0.8,0.8,1c0.5,0.4,1.1,0.2,1.3-0.5
		c0.1-0.2,0.1-0.5,0.1-0.8c0-0.2,0.1-0.4,0.1-0.6c0,0,0,0,0.1,0c0,0.1,0.1,0.2,0.1,0.3c0.3,0.7,0.8,1.4,1.4,1.9
		c0.5,0.4,0.9,0.8,1.4,1.2c0.1,0.1,0.2,0.1,0.2,0.2c-1.5-1.4-2.4-3.2-3.1-5.1c-0.5,0.5-0.8,1-0.9,1.7c0,0.3-0.1,0.7-0.1,1
		c0,0.2-0.1,0.2-0.2,0.1c-0.2-0.1-0.4-0.3-0.5-0.6c-0.5-1.1-0.6-2.3-0.3-3.5C5.8,11,6,10.6,6.1,10.2c0.1-0.3,0-0.6-0.2-0.8
		C5.7,9.2,5.5,9,5.4,8.8C5.2,8.3,5,7.8,4.8,7.2C4.6,6.4,4.2,5.6,3.7,4.9C3.5,4.8,3.4,4.6,3.2,4.4C3.1,4.2,3,3.9,2.9,3.7
		c-0.1-0.2,0-0.4,0.3-0.5c0.2,0,0.4,0,0.5,0c0.7,0.2,1.3,0.5,1.9,1C5.7,4.4,5.8,4.4,6,4.5c0.3,0,0.6,0,0.9,0.1c0.4,0,0.7,0.1,1,0.2
		c1.6,0.6,2.8,1.6,4,2.9c0.7,0.8,1.3,1.7,1.7,2.6c0.3,0.6,0.5,1.1,0.7,1.7c0.3,0.7,0.7,1.4,1,2.1c0.2,0.5,0.6,0.8,1.2,1
		c0.5,0.1,0.9,0.3,1.4,0.5c0.7,0.4,1.4,0.9,2.1,1.4c0.1,0.1,0.1,0.2,0.2,0.3c-0.1,0-0.1,0-0.2,0c-0.4,0-0.7,0-1.1,0.1
		c-0.6,0-1.1,0.3-1.6,0.4c-0.1,0-0.2,0.1-0.2,0.2c0.2,0.5,0.4,0.8,0.8,1.2c0.5,0.4,1.1,0.8,1.7,1c0.6,0.3,1.2,0.7,1.7,1.1
		c0.1,0.1,0.2,0.2,0.3,0.3c0,0,0,0,0.1-0.1c-0.1-0.2-0.2-0.3-0.4-0.5C21.2,20.8,21.1,20.7,21,20.6z"/>
	<path class="st1" d="M6.2,5.8C6.5,6.2,6.7,6.6,6.9,7c0.3-0.2,0.3-0.5,0.1-0.8C6.9,5.8,6.6,5.7,6.2,5.8z"/>
</g>
</svg>
