<?xml version="1.0" encoding="utf-8"?>
<!-- Generator: Adobe Illustrator 26.0.1, SVG Export Plug-In . SVG Version: 6.00 Build 0)  -->
<svg version="1.1" id="Layer_1" xmlns="http://www.w3.org/2000/svg" xmlns:xlink="http://www.w3.org/1999/xlink" x="0px" y="0px"
	 viewBox="0 0 24 24" style="enable-background:new 0 0 24 24;" xml:space="preserve">
<style type="text/css">
	.st0{fill:#018343;}
</style>
<g>
	<path class="st0" d="M14.1,11.4C14,11.4,14,11.4,14.1,11.4L14.1,11.4C14,11.4,14,11.4,14.1,11.4l-0.5,0.3c0,0,0,0,0,0v0.5
		c0,0,0,0,0,0l0.5,0.3c0,0,0,0,0,0l0.5-0.3c0,0,0,0,0,0v-0.5c0,0,0,0,0,0L14.1,11.4z"/>
	<path class="st0" d="M21.7,7c0-0.4-0.2-0.8-0.6-1c-0.4-0.3-0.9-0.5-1.3-0.8c-2.4-1.4-4.8-2.7-7.2-4.1C12.6,1.1,12.4,1,12.3,1
		c-0.1-0.1-0.1-0.1-0.2-0.1c-0.3,0-0.5,0.1-0.7,0.2C9,2.5,6.6,3.9,4.2,5.2c-0.5,0.3-1,0.5-1.4,0.8c-0.4,0.2-0.6,0.6-0.6,1
		c0,2.2,0,4.4,0,6.6c0,0.6,0,1.2,0,1.8c0,0.5,0,1,0,1.6c0,0.2,0.1,0.4,0.2,0.6c0.1,0.3,0.4,0.4,0.6,0.5c2.9,1.7,5.8,3.3,8.6,5
		c0.1,0,0.3,0,0.4,0c0,0,0.1,0,0.1,0c0.1,0,0.1-0.1,0.2-0.1c0.2-0.1,0.4-0.2,0.6-0.3c0.6-0.3,1.1-0.7,1.7-1c0.5-0.3,1-0.6,1.5-0.8
		c1.7-0.9,3.3-1.9,4.9-2.8c0.4-0.2,0.6-0.6,0.6-1C21.7,13.6,21.7,10.3,21.7,7z M7.4,13.3C7.4,13.3,7.4,13.3,7.4,13.3
		c-0.1,0.1-0.1,0.1-0.1,0.1l-0.8-0.5c-0.1,0-0.1-0.1-0.1-0.1v-1c0-0.1,0-0.1-0.1-0.1L6,11.4c0,0-0.1,0-0.1,0c0,0-0.1,0-0.1,0
		l-0.3,0.2c-0.1,0-0.1,0.1-0.1,0.1v1c0,0.1,0,0.1-0.1,0.1l-0.8,0.5c0,0-0.1,0-0.1,0c0,0,0,0,0-0.1l0-2.1c0-0.1,0-0.1,0.1-0.1
		l1.4-0.8c0,0,0,0,0.1,0h0c0,0,0.1,0,0.1,0L7.4,11c0.1,0,0.1,0.1,0.1,0.1L7.4,13.3z M11.5,12.7c0,0.1,0,0.1-0.1,0.1l-1.4,0.8
		c-0.1,0-0.1,0-0.2,0l-1.4-0.8c-0.1,0-0.1-0.1-0.1-0.1v-1.6c0-0.1,0-0.1,0.1-0.1l1.4-0.8c0,0,0.1,0,0.1,0c0,0,0.1,0,0.1,0l1.4,0.8
		c0.1,0,0.1,0.1,0.1,0.1V12.7z M15.6,12.8c0,0.1,0,0.1-0.1,0.1l-1.4,0.8c-0.1,0-0.1,0-0.2,0l-1.4-0.8c-0.1,0-0.1-0.1-0.1-0.1v-1.6
		c0-0.1,0-0.1,0.1-0.1l1.4-0.8c0.1,0,0.1,0,0.2,0l0.3,0.2c0,0,0,0,0.1,0c0,0,0,0,0,0V8.4c0,0,0-0.1,0-0.1c0,0,0,0,0,0c0,0,0,0,0,0
		l0.8,0.4c0.1,0,0.1,0.1,0.1,0.1V12.8z M19.6,11.6c0,0.1,0,0.1-0.1,0.1l-0.8,0.5c0,0-0.1,0-0.1,0c0,0,0,0,0-0.1v-0.4
		c0,0,0-0.1,0-0.1l-0.4-0.2c0,0-0.1,0-0.1,0l-0.4,0.2c0,0,0,0,0,0.1v0.5c0,0,0,0.1,0,0.1l1.4,0.8c0,0,0,0,0,0.1c0,0,0,0.1,0,0.1
		l-0.8,0.5c0,0-0.1,0-0.2,0l-1.3-0.8c-0.1,0-0.1-0.1-0.1-0.1v-1.6c0-0.1,0-0.1,0.1-0.1l1.4-0.8c0,0,0.1,0,0.1,0v0c0,0,0.1,0,0.1,0
		l1.3,0.8c0.1,0,0.1,0.1,0.1,0.1V11.6z M18.4,11.8v0.3c0,0,0,0,0,0l-0.3,0.1c0,0,0,0,0,0l-0.3-0.1c0,0,0,0,0,0v-0.3c0,0,0,0,0,0
		l0.3-0.2c0,0,0,0,0,0s0,0,0,0L18.4,11.8C18.4,11.8,18.4,11.8,18.4,11.8z"/>
</g>
</svg>
