<?xml version="1.0" encoding="utf-8"?>
<!-- Generator: Adobe Illustrator 26.0.1, SVG Export Plug-In . SVG Version: 6.00 Build 0)  -->
<svg version="1.1" id="Layer_1" xmlns="http://www.w3.org/2000/svg" xmlns:xlink="http://www.w3.org/1999/xlink" x="0px" y="0px"
	 viewBox="0 0 24 24" style="enable-background:new 0 0 24 24;" xml:space="preserve">
<style type="text/css">
	.st0{fill:#008443;}
</style>
<path class="st0" d="M22.2,0.8H1.8c-0.6,0-1,0.4-1,1v20.5c0,0.6,0.4,1,1,1h20.5c0.6,0,1-0.4,1-1V1.8C23.2,1.2,22.8,0.8,22.2,0.8z
	 M12,2.6l3.1,1.5l-2.9,1.6L9,4.1L12,2.6z M7.5,4.8l3.1,1.6L7.3,8.2L4.1,6.5L7.5,4.8z M11.4,21.4c0,0-1.8-1.1-2.3-1.4
	c-0.3-0.2-0.6-0.8-0.7-0.9c0-0.1-3-5.9-3-5.9v5L3.2,17V7.5c0,0,1.6,0.8,2.1,1.1c0,0,0.2,0.1,0.2,0.2c0.3,0.6,3.3,7.1,3.3,7.1v-5.4
	l2.5,1.3L11.4,21.4z M8.8,8.9l3.4-1.8l3.3,1.7L12,10.5L8.8,8.9z M16.4,9.8l0,4.1l-3.7,1.8v-4.1L16.4,9.8z M12.7,21.4v-4.2l3.7-1.8
	l0,4.2L12.7,21.4z M13.6,6.4l2.9-1.6l3.4,1.7l-3,1.5L13.6,6.4z M20.8,17.4l-3.2,1.6l0-4.2l3.2-1.6V17.4z M20.8,11.7l-3.2,1.6l0-4.1
	l3.2-1.6V11.7z"/>
</svg>
