<?xml version="1.0" encoding="utf-8"?>
<!-- Generator: Adobe Illustrator 26.0.1, SVG Export Plug-In . SVG Version: 6.00 Build 0)  -->
<svg version="1.1" id="Layer_1" xmlns="http://www.w3.org/2000/svg" xmlns:xlink="http://www.w3.org/1999/xlink" x="0px" y="0px"
	 viewBox="0 0 24 24" style="enable-background:new 0 0 24 24;" xml:space="preserve">
<style type="text/css">
	.st0{fill:#008443;}
</style>
<path class="st0" d="M22.2,0.8H1.8c-0.6,0-1,0.4-1,1v20.5c0,0.6,0.4,1,1,1h20.5c0.6,0,1-0.4,1-1V1.8C23.2,1.2,22.8,0.8,22.2,0.8z
	 M7.9,21.5H5.8V7.3h2.1V21.5z M11.4,16.7H9.2v-4.3h2.1V16.7z M11.4,11.1H9.2V9h2.1V11.1z M11.4,7.7H9.2V3.4h2.1V7.7z M14.8,20.2
	h-2.1v-4.3h2.1V20.2z M14.8,14.6h-2.1v-2.1h2.1V14.6z M14.8,11.1h-2.1V6.8h2.1V11.1z M18.2,16.7h-2.1V2.5h2.1V16.7z"/>
</svg>
