<?xml version="1.0" encoding="utf-8"?>
<!-- Generator: Adobe Illustrator 26.0.1, SVG Export Plug-In . SVG Version: 6.00 Build 0)  -->
<svg version="1.1" id="Layer_1" xmlns="http://www.w3.org/2000/svg" xmlns:xlink="http://www.w3.org/1999/xlink" x="0px" y="0px"
	 viewBox="0 0 24 24" style="enable-background:new 0 0 24 24;" xml:space="preserve">
<style type="text/css">
	.st0{fill:#018343;}
</style>
<path class="st0" d="M10,8.6C9.6,8.4,9.3,8.4,8.9,8.4c-0.2,0-0.5,0-0.6,0c-0.2,0-0.3,0-0.4,0v3.2c0.1,0,0.3,0,0.4,0h0.5
	c0.4,0,0.7-0.1,1.1-0.2c0.3-0.1,0.6-0.3,0.8-0.5c0.2-0.2,0.3-0.6,0.3-1c0-0.3-0.1-0.6-0.2-0.9C10.5,8.9,10.3,8.7,10,8.6L10,8.6z
	 M19.3,0.8H4.7c-2.2,0-4,1.8-4,4.1v14.3c0,2.3,1.8,4.1,4,4.1h14.5c2.2,0,4-1.8,4-4.1V4.8C23.2,2.6,21.5,0.8,19.3,0.8z M12.3,12
	c-0.4,0.5-0.9,0.9-1.5,1.2c-0.6,0.2-1.3,0.3-2.1,0.3c-0.2,0-0.4,0-0.5,0s-0.2,0-0.4,0v3.1c0,0.1,0,0.1-0.1,0.1H5.9
	c-0.1,0-0.1,0-0.1-0.1V6.6c0-0.1,0-0.1,0.1-0.1c0.2,0,0.3,0,0.5,0c0.2,0,0.5,0,0.7,0s0.5,0,0.8,0c0.3,0,0.6,0,0.9,0
	c0.8,0,1.4,0.1,1.9,0.3c0.5,0.2,0.9,0.4,1.3,0.8c0.3,0.3,0.5,0.7,0.7,1.1c0.1,0.4,0.2,0.8,0.2,1.3C12.9,10.7,12.7,11.4,12.3,12
	L12.3,12z M19,15.7c-0.3,0.4-0.6,0.7-1,0.9c-0.5,0.2-1,0.3-1.7,0.3c-0.4,0-0.9,0-1.3-0.1c-0.3-0.1-0.7-0.2-1-0.3
	c-0.1,0-0.1-0.1-0.1-0.2v-1.7c0,0,0-0.1,0-0.1c0,0,0.1,0,0.1,0c0.4,0.2,0.8,0.4,1.2,0.5c0.4,0.1,0.7,0.1,1.1,0.1
	c0.4,0,0.6,0,0.8-0.1c0.1-0.1,0.3-0.2,0.3-0.4c0-0.1-0.1-0.3-0.2-0.4c-0.1-0.1-0.5-0.3-0.9-0.5c-0.5-0.2-0.9-0.4-1.3-0.7
	c-0.3-0.2-0.5-0.5-0.7-0.8c-0.1-0.3-0.2-0.6-0.2-1c0-0.4,0.1-0.8,0.3-1.2c0.2-0.4,0.6-0.7,1-0.9c0.4-0.2,1-0.3,1.7-0.3
	c0.4,0,0.8,0,1.2,0.1c0.3,0,0.6,0.1,0.8,0.2c0,0,0.1,0,0.1,0.1c0,0,0,0.1,0,0.1v1.6c0,0,0,0.1,0,0.1c-0.1,0-0.1,0-0.2,0
	c-0.3-0.2-0.6-0.3-0.9-0.3c-0.3-0.1-0.7-0.1-1.1-0.1c-0.2,0-0.4,0-0.6,0.1c-0.1,0-0.2,0.1-0.3,0.2c0,0.1-0.1,0.2-0.1,0.3
	s0,0.2,0.1,0.3c0.1,0.1,0.2,0.2,0.3,0.3c0.2,0.1,0.4,0.2,0.7,0.3c0.5,0.2,1,0.4,1.4,0.7c0.3,0.2,0.6,0.5,0.7,0.8
	c0.1,0.3,0.2,0.6,0.2,1C19.4,14.9,19.2,15.3,19,15.7L19,15.7z"/>
</svg>
