<?xml version="1.0" encoding="utf-8"?>
<!-- Generator: Adobe Illustrator 26.0.1, SVG Export Plug-In . SVG Version: 6.00 Build 0)  -->
<svg version="1.1" id="Layer_1" xmlns="http://www.w3.org/2000/svg" xmlns:xlink="http://www.w3.org/1999/xlink" x="0px" y="0px"
	 viewBox="0 0 24 24" style="enable-background:new 0 0 24 24;" xml:space="preserve">
<style type="text/css">
	.st0{fill:#018343;}
</style>
<g>
	<path class="st0" d="M19.7,10.8c0,0-0.1,0.1,0,0.1c0.1,0.1,0,0.3,0,0.4c0,0.1,0,0.1,0,0.2c0,0,0,0,0.1,0c0,0,0.1,0,0.1,0
		c0.1-0.2,0.2-0.4,0.1-0.6C19.8,10.8,19.8,10.8,19.7,10.8z"/>
	<path class="st0" d="M22.1,0.8H1.9c-0.7,0-1.2,0.5-1.2,1.2v20.1c0,0.7,0.5,1.2,1.2,1.2h20.1c0.7,0,1.2-0.5,1.2-1.2V1.9
		C23.2,1.3,22.7,0.8,22.1,0.8z M17.4,12L17.4,12c-0.2,0-0.3,0.1-0.5,0.2l-3.6,3.5l-0.2-0.2L12.7,15C16.2,11.5,16.8,11.5,17.4,12z
		 M13.6,15.9l3.5-3.5c0.2-0.2,0.5-0.2,0.7,0c0.2,0.2,0.2,0.5,0,0.7L14,16.4L13.6,15.9z M13.8,16.5l-0.9,0.2c0,0,0,0-0.1,0
		c0,0,0,0,0-0.1l0.5-0.5L13.8,16.5z M11.6,16.1l0.9-0.9l0.7,0.7l-1.6,0.3C11.6,16.2,11.6,16.2,11.6,16.1
		C11.6,16.2,11.6,16.1,11.6,16.1z M8.7,20.9C8.6,20.9,8.6,20.9,8.7,20.9c-0.1-0.1,0-0.1,0-0.1h0l0.8-0.8l1,1L8.7,20.9z M10.7,20.8
		c0,0.1-0.1,0.2-0.2,0.1h0l-1-1l3-3l1.5-0.3l0.7,0.7c-1,0.9-2.4,1.8-4.1,2.6h0c-0.1,0-0.1,0.1-0.1,0.2L10.7,20.8z M14.8,17.2
		l-0.7-0.7l3.7-3.3c0,0,0.1-0.1,0.1-0.1C17.9,14.2,16.4,15.7,14.8,17.2z M17.7,12.1L17.7,12.1c-1.3-1.3,0.5-3.3,2-2.1l-1.3,1.3
		c0,0,0,0.1,0,0.1l1,1C18.9,12.6,18.2,12.5,17.7,12.1z M19.8,12.1c-0.1,0.1-0.1,0.1-0.2,0.2l-1-1l1.2-1.2
		C20.4,10.6,20.3,11.5,19.8,12.1z"/>
</g>
</svg>
