<?xml version="1.0" encoding="utf-8"?>
<!-- Generator: Adobe Illustrator 26.0.1, SVG Export Plug-In . SVG Version: 6.00 Build 0)  -->
<svg version="1.1" id="Layer_1" xmlns="http://www.w3.org/2000/svg" xmlns:xlink="http://www.w3.org/1999/xlink" x="0px" y="0px"
	 viewBox="0 0 24 24" style="enable-background:new 0 0 24 24;" xml:space="preserve">
<style type="text/css">
	.st0{fill:#018343;}
</style>
<path class="st0" d="M19,8.9v1.9c0,0.1,0,0.1-0.2,0.1c0,0-0.1,0-0.1,0c-0.6,0-1.2,0.1-1.7,0.4l0,0c-0.2,0.1-0.3,0.2-0.5,0.4l0,0v4.9
	c0,0.1,0,0.1-0.1,0.1h-1.8c0,0,0,0,0,0c-0.1,0-0.1-0.1-0.1-0.1v0v-5.4l0-0.7l0-0.8c0-0.2,0-0.4,0-0.7c0,0,0,0,0,0c0,0,0-0.1,0.1-0.1
	h0h1.7c0,0,0,0,0,0c0.1,0,0.2,0.1,0.2,0.2v0c0.1,0.3,0.1,0.5,0.1,0.8c0,0,0,0,0,0v0c0.3-0.3,0.6-0.6,1-0.8l0,0
	c0.4-0.2,0.9-0.4,1.4-0.4c0,0,0,0,0,0h0c0,0,0,0,0,0C19,8.8,19,8.8,19,8.9L19,8.9L19,8.9z M12.6,12c-0.4,0.5-0.9,0.9-1.5,1.2l0,0
	c-0.6,0.2-1.3,0.3-1.9,0.3c-0.1,0-0.1,0-0.2,0h0l-0.5,0l-0.4,0v3.1c0,0,0,0,0,0c0,0.1,0,0.1-0.1,0.1l0,0H6.2c-0.1,0-0.1,0-0.1-0.1
	V6.6c0-0.1,0-0.1,0.1-0.1l0.5,0l0.7,0l0.8,0l0.9,0c0,0,0.1,0,0.2,0c0.6,0,1.2,0.1,1.8,0.3l0,0c0.5,0.2,0.9,0.4,1.3,0.8l0,0
	c0.3,0.3,0.5,0.7,0.7,1.1l0,0c0.1,0.4,0.2,0.8,0.2,1.2l0,0c0,0,0,0.1,0,0.1C13.2,10.8,13,11.4,12.6,12L12.6,12L12.6,12z M19.3,0.8
	H4.7c-2.2,0-4,1.8-4,4.1l0,0v14.3c0,0,0,0,0,0c0,2.3,1.8,4.1,4,4.1c0,0,0,0,0,0h14.5c0,0,0,0,0,0c2.2,0,4-1.8,4-4.1c0,0,0,0,0,0l0,0
	V4.8c0,0,0,0,0,0C23.2,2.6,21.5,0.8,19.3,0.8C19.3,0.8,19.3,0.8,19.3,0.8L19.3,0.8L19.3,0.8z M10.3,8.6c-0.3-0.1-0.6-0.2-1-0.2
	c0,0-0.1,0-0.1,0h0c-0.3,0-0.7,0-1,0v3.2l0.4,0H9c0,0,0,0,0,0c0.4,0,0.8-0.1,1.1-0.2l0,0c0.3-0.1,0.6-0.3,0.8-0.5l0,0
	c0.2-0.2,0.3-0.6,0.3-0.9c0,0,0-0.1,0-0.1v0c0,0,0-0.1,0-0.1C11.1,9.3,10.8,8.8,10.3,8.6L10.3,8.6L10.3,8.6z"/>
</svg>
