<?xml version="1.0" encoding="utf-8"?>
<!-- Generator: Adobe Illustrator 26.0.1, SVG Export Plug-In . SVG Version: 6.00 Build 0)  -->
<svg version="1.1" id="Layer_1" xmlns="http://www.w3.org/2000/svg" xmlns:xlink="http://www.w3.org/1999/xlink" x="0px" y="0px"
	 viewBox="0 0 24 24" style="enable-background:new 0 0 24 24;" xml:space="preserve">
<style type="text/css">
	.st0{fill:#018343;}
</style>
<path class="st0" d="M8.1,7L8.1,7c0-1-0.6-1.5-1.7-1.5H4.9v2.9h1.6C7.5,8.4,8.1,7.8,8.1,7z M0.8,1.7v20.5c0,0.5,0.4,1,1,1h20.5
	c0.5,0,1-0.4,1-1V1.7c0-0.5-0.4-1-1-1H1.7C1.2,0.8,0.8,1.2,0.8,1.7z M2.8,3.7h3.8c2.2,0,3.6,1.3,3.6,3.2V7c0,2.1-1.7,3.3-3.8,3.3
	H4.9V13h-2V3.7z M11.3,20.4H2.9V19h8.4V20.4z M15.8,13.1C13,13.2,11,11.1,11,8.4c0-2.7,2-4.8,4.8-4.8c1.8,0,2.8,0.6,3.7,1.5
	l-1.3,1.5c-0.7-0.7-1.5-1-2.4-1c-1.6,0-2.7,1.3-2.7,2.9c0,1.6,1.1,2.9,2.7,2.9c1,0,1.7-0.4,2.4-1.1l1.3,1.3
	C18.7,12.5,17.6,13.1,15.8,13.1z"/>
</svg>
