<?xml version="1.0" encoding="utf-8"?>
<!-- Generator: Adobe Illustrator 26.0.1, SVG Export Plug-In . SVG Version: 6.00 Build 0)  -->
<svg version="1.1" id="Layer_1" xmlns="http://www.w3.org/2000/svg" xmlns:xlink="http://www.w3.org/1999/xlink" x="0px" y="0px"
	 viewBox="0 0 24 24" style="enable-background:new 0 0 24 24;" xml:space="preserve">
<style type="text/css">
	.st0{fill:#018343;}
</style>
<g>
	<path class="st0" d="M14.9,9c0.2,0.3,0.4,0.6,0.6,1c0.2,0.3,0.4,0.7,0.6,1c0.2-0.6,0.5-1.1,0.6-1.7C16.1,9.2,15.5,9.1,14.9,9z"/>
	<path class="st0" d="M12,8c0.4,0,0.8,0,1.2,0c-0.4-0.5-0.8-1-1.2-1.4c-0.4,0.4-0.8,0.9-1.2,1.4C11.2,8,11.6,8,12,8z"/>
	<path class="st0" d="M7.1,8.5C8,8.3,8.8,8.2,9.8,8.1c0.5-0.8,1.1-1.5,1.7-2.1c-0.1-0.1-0.2-0.2-0.3-0.3c-1.5-1.4-3-1.9-3.6-1.5
		C6.9,4.6,6.6,6,7,7.9C7.1,8.1,7.1,8.3,7.1,8.5z"/>
	<path class="st0" d="M16,13c-0.2,0.3-0.4,0.7-0.6,1c-0.2,0.3-0.4,0.7-0.6,1c0.6-0.1,1.3-0.2,1.8-0.3C16.5,14.1,16.3,13.6,16,13z"/>
	<path class="st0" d="M8.5,10c0.2-0.3,0.4-0.7,0.6-1C8.5,9.1,7.9,9.2,7.4,9.3C7.5,9.9,7.8,10.4,8,11C8.2,10.7,8.4,10.3,8.5,10
		L8.5,10z"/>
	<path class="st0" d="M9.2,15c-0.2-0.3-0.4-0.7-0.6-1h0c-0.2-0.3-0.4-0.7-0.6-1c-0.2,0.6-0.5,1.2-0.6,1.7C7.9,14.8,8.5,14.9,9.2,15z
		"/>
	<path class="st0" d="M10.2,15.1c0.6,0,1.2,0.1,1.8,0.1c0.6,0,1.2,0,1.8-0.1c0.3-0.5,0.6-1,0.9-1.5c0.3-0.5,0.6-1.1,0.8-1.6
		c-0.3-0.5-0.5-1-0.8-1.6c-0.3-0.5-0.6-1-0.9-1.5c-0.6,0-1.2-0.1-1.8-0.1h0c-0.6,0-1.2,0-1.8,0.1c-0.3,0.5-0.6,1-0.9,1.5l0,0
		C9,10.9,8.7,11.5,8.4,12c0.3,0.5,0.5,1.1,0.8,1.6h0C9.6,14.1,9.9,14.6,10.2,15.1z M12,10.2c1,0,1.7,0.8,1.7,1.7
		c0,1-0.8,1.7-1.7,1.7c-1,0-1.7-0.8-1.7-1.7C10.3,11,11,10.2,12,10.2z"/>
	<path class="st0" d="M18,9.7c-0.2-0.1-0.4-0.1-0.6-0.2c-0.2,0.8-0.6,1.6-1,2.4c0.4,0.9,0.7,1.7,1,2.5c0.1,0,0.2-0.1,0.3-0.1
		c1.9-0.6,3.1-1.6,3.1-2.4C20.9,11.3,19.8,10.4,18,9.7z"/>
	<path class="st0" d="M6.6,9.5C6.3,9.6,6.1,9.7,5.9,9.7c-1.8,0.6-2.8,1.5-2.8,2.2c0,0.3,0.2,0.7,0.7,1.2c0.5,0.5,1.3,0.9,2.3,1.2
		c0.2,0.1,0.3,0.1,0.5,0.2c0.2-0.8,0.6-1.7,1-2.5C7.1,11.2,6.8,10.3,6.6,9.5z"/>
	<path class="st0" d="M22.2,0.8H1.8c-0.6,0-1.1,0.5-1.1,1.1v20.4c0,0.6,0.5,1.1,1.1,1.1h20.4c0.6,0,1.1-0.5,1.1-1.1V1.8
		C23.2,1.2,22.8,0.8,22.2,0.8z M18.1,15.2c-0.1,0-0.2,0.1-0.4,0.1c0,0.2,0.1,0.4,0.1,0.5c0.4,2.2,0.1,4.1-0.9,4.7
		c-1,0.6-2.7,0-4.3-1.4c-0.2-0.2-0.4-0.3-0.5-0.5c-0.1,0.1-0.3,0.3-0.4,0.4c-1.7,1.5-3.5,2.1-4.5,1.5c-1-0.6-1.3-2.3-0.9-4.5
		c0-0.2,0.1-0.5,0.2-0.7c-0.2-0.1-0.4-0.1-0.5-0.2c-2.2-0.7-3.6-2-3.6-3.2c0-1.2,1.3-2.3,3.4-3c0.2-0.1,0.5-0.2,0.7-0.2
		C6.3,8.5,6.2,8.3,6.2,8.1C5.8,5.9,6.1,4.1,7.1,3.5c1.1-0.6,2.8,0,4.6,1.6c0.1,0.1,0.2,0.2,0.3,0.3c0.2-0.2,0.3-0.3,0.5-0.4
		c1.7-1.5,3.4-2.1,4.4-1.5c1.1,0.6,1.4,2.5,0.9,4.8c0,0.1-0.1,0.3-0.1,0.4c0.2,0.1,0.4,0.1,0.6,0.2c2.1,0.7,3.5,1.9,3.5,3
		C21.8,13.2,20.3,14.4,18.1,15.2z"/>
	<path class="st0" d="M16.9,8.5c0-0.1,0.1-0.3,0.1-0.4c0.4-2,0.2-3.5-0.5-3.9c-0.6-0.4-2,0.1-3.4,1.4c-0.1,0.1-0.3,0.3-0.4,0.4
		c0.6,0.6,1.1,1.3,1.7,2.1C15.2,8.2,16.1,8.3,16.9,8.5z"/>
	<path class="st0" d="M7.1,15.5C7.1,15.7,7,16,7,16.2c-0.3,1.8-0.1,3.2,0.5,3.6c0.3,0.2,0.8,0.2,1.4-0.1c0.7-0.2,1.4-0.7,2.2-1.4
		c0.1-0.1,0.2-0.2,0.4-0.3c-0.6-0.6-1.1-1.3-1.7-2.1C8.8,15.8,7.9,15.7,7.1,15.5z"/>
	<path class="st0" d="M16.9,15.5c-0.8,0.2-1.7,0.3-2.6,0.4c-0.5,0.8-1.1,1.5-1.6,2.1c0.2,0.2,0.3,0.3,0.5,0.4
		c1.4,1.2,2.7,1.7,3.4,1.3c0.3-0.2,0.5-0.6,0.6-1.2c0.1-0.7,0.1-1.6-0.1-2.6C17,15.8,16.9,15.6,16.9,15.5z"/>
	<path class="st0" d="M12,16c-0.4,0-0.8,0-1.1,0c0.4,0.5,0.8,1,1.2,1.4c0.4-0.4,0.8-0.9,1.1-1.4C12.8,16,12.4,16,12,16z"/>
</g>
</svg>
