<?xml version="1.0" encoding="utf-8"?>
<!-- Generator: Adobe Illustrator 26.0.1, SVG Export Plug-In . SVG Version: 6.00 Build 0)  -->
<svg version="1.1" id="Layer_1" xmlns="http://www.w3.org/2000/svg" xmlns:xlink="http://www.w3.org/1999/xlink" x="0px" y="0px"
	 viewBox="0 0 24 24" style="enable-background:new 0 0 24 24;" xml:space="preserve">
<style type="text/css">
	.st0{fill:#018343;}
	.st1{display:none;}
</style>
<g>
	<path class="st0" d="M18.5,9.3c-0.3,0-0.6,0.1-0.8,0.3c-0.2,0.2-0.3,0.5-0.3,0.9v3.1c0,0.4,0.1,0.7,0.3,0.9
		c0.2,0.2,0.4,0.3,0.8,0.3s0.6-0.1,0.8-0.3c0.2-0.2,0.3-0.5,0.3-0.9v-3.1c0-0.4-0.1-0.7-0.3-0.9C19.1,9.4,18.8,9.3,18.5,9.3z"/>
	<path class="st0" d="M21.8,0.8H2.2c-0.8,0-1.4,0.6-1.4,1.4v19.6c0,0.8,0.6,1.4,1.4,1.4h19.6c0.8,0,1.4-0.6,1.4-1.4V2.2
		C23.2,1.4,22.6,0.8,21.8,0.8z M8.1,15.2c-0.3,0.4-0.6,0.7-1,0.9c-0.4,0.2-1,0.3-1.5,0.3c-0.5,0-1-0.1-1.4-0.2
		c-0.4-0.2-0.8-0.3-1-0.6c-0.3-0.2-0.4-0.5-0.4-0.7c0-0.1,0-0.3,0.1-0.4c0.1-0.2,0.2-0.3,0.3-0.4c0.1-0.1,0.3-0.2,0.4-0.2
		c0.1,0,0.3,0,0.4,0.1c0.1,0.1,0.3,0.2,0.4,0.3c0.1,0.1,0.3,0.2,0.5,0.3c0.2,0.1,0.4,0.1,0.7,0.1c0.2,0,0.4,0,0.5-0.1
		c0.2-0.1,0.3-0.1,0.4-0.2c0.1-0.1,0.2-0.3,0.2-0.5c0-0.2-0.1-0.4-0.2-0.5c-0.1-0.1-0.3-0.3-0.5-0.4s-0.5-0.2-0.7-0.4
		s-0.5-0.3-0.8-0.4C4,12.2,3.8,12,3.6,11.8C3.3,11.6,3.2,11.3,3,11c-0.1-0.3-0.2-0.6-0.2-1c0-0.4,0.1-0.8,0.3-1.1
		c0.2-0.3,0.4-0.6,0.7-0.8c0.3-0.2,0.6-0.3,1-0.4c0.4-0.1,0.7-0.1,1.1-0.1c0.2,0,0.4,0,0.6,0c0.3,0,0.5,0.1,0.8,0.1
		C7.5,7.8,7.8,7.9,8,8.1c0.2,0.1,0.3,0.3,0.3,0.6c0,0.1,0,0.2-0.1,0.4C8.1,9.2,8,9.3,7.9,9.4C7.8,9.5,7.7,9.6,7.5,9.6
		c-0.1,0-0.3,0-0.4-0.1C7,9.4,6.8,9.3,6.6,9.3S6.2,9.1,5.9,9.1c-0.3,0-0.5,0-0.7,0.1C5,9.3,4.9,9.4,4.8,9.5C4.7,9.6,4.7,9.7,4.7,9.8
		c0,0.2,0.1,0.3,0.2,0.4c0.1,0.1,0.3,0.2,0.5,0.3c0.2,0.1,0.5,0.2,0.7,0.3c0.3,0.1,0.5,0.2,0.8,0.4c0.3,0.2,0.5,0.3,0.7,0.6
		c0.2,0.2,0.4,0.5,0.5,0.8c0.1,0.3,0.2,0.7,0.2,1.1C8.4,14.4,8.3,14.8,8.1,15.2z M13,11.3c0.2,0,0.3,0.1,0.4,0.2
		c0.1,0.1,0.1,0.3,0.1,0.5c0,0.2,0,0.3-0.1,0.5c-0.1,0.2-0.2,0.2-0.4,0.2h-1.8v2h3.2c0.2,0,0.3,0.1,0.4,0.2c0.1,0.2,0.1,0.4,0.1,0.6
		c0,0.2,0,0.4-0.1,0.5c-0.1,0.2-0.2,0.3-0.4,0.3h-4.2c-0.2,0-0.4,0-0.6-0.1c-0.2-0.1-0.3-0.2-0.3-0.4V8.2c0-0.2,0.1-0.3,0.3-0.4
		c0.2-0.1,0.4-0.1,0.6-0.1h4.2c0.2,0,0.3,0.1,0.4,0.3c0.1,0.2,0.1,0.3,0.1,0.5c0,0.2,0,0.4-0.1,0.6c-0.1,0.2-0.2,0.2-0.4,0.2h-3.2v2
		H13z M21.4,13.6c0,0.7-0.1,1.2-0.4,1.6c-0.3,0.4-0.6,0.7-1,0.9c-0.4,0.2-0.9,0.3-1.5,0.3s-1-0.1-1.5-0.3c-0.4-0.2-0.8-0.5-1-0.9
		c-0.3-0.4-0.4-1-0.4-1.6v-3.1c0-0.7,0.1-1.2,0.4-1.6c0.3-0.4,0.6-0.7,1-0.9c0.4-0.2,0.9-0.3,1.5-0.3s1,0.1,1.5,0.3
		c0.4,0.2,0.8,0.5,1,0.9c0.3,0.4,0.4,1,0.4,1.6V13.6z"/>
	<path class="st1" d="M7.7,11.9c-0.2-0.2-0.5-0.4-0.7-0.6c-0.3-0.2-0.5-0.3-0.8-0.4c-0.3-0.1-0.5-0.2-0.7-0.3
		c-0.2-0.1-0.4-0.2-0.5-0.3C4.8,10.2,4.7,10,4.7,9.8c0-0.1,0-0.2,0.1-0.3C4.9,9.4,5,9.3,5.2,9.2c0.2-0.1,0.4-0.1,0.7-0.1
		c0.3,0,0.6,0,0.8,0.1S7,9.4,7.1,9.5c0.1,0.1,0.3,0.1,0.4,0.1c0.2,0,0.3-0.1,0.4-0.2C8,9.3,8.1,9.2,8.1,9c0.1-0.2,0.1-0.3,0.1-0.4
		c0-0.2-0.1-0.4-0.3-0.6C7.8,7.9,7.5,7.8,7.3,7.8C7,7.7,6.8,7.6,6.5,7.6c-0.3,0-0.5,0-0.6,0c-0.4,0-0.7,0-1.1,0.1
		c-0.4,0.1-0.7,0.2-1,0.4C3.5,8.3,3.3,8.6,3.1,8.9C2.9,9.2,2.8,9.6,2.8,10c0,0.4,0.1,0.7,0.2,1c0.1,0.3,0.3,0.5,0.5,0.7
		C3.8,12,4,12.2,4.3,12.3c0.3,0.1,0.5,0.3,0.8,0.4s0.5,0.2,0.7,0.4s0.4,0.3,0.5,0.4c0.1,0.1,0.2,0.3,0.2,0.5c0,0.2-0.1,0.3-0.2,0.5
		c-0.1,0.1-0.3,0.2-0.4,0.2c-0.2,0.1-0.4,0.1-0.5,0.1c-0.3,0-0.5,0-0.7-0.1c-0.2-0.1-0.4-0.2-0.5-0.3c-0.1-0.1-0.3-0.2-0.4-0.3
		c-0.1-0.1-0.3-0.1-0.4-0.1c-0.1,0-0.3,0.1-0.4,0.2c-0.1,0.1-0.2,0.2-0.3,0.4c-0.1,0.2-0.1,0.3-0.1,0.4c0,0.3,0.1,0.5,0.4,0.7
		c0.3,0.2,0.6,0.4,1,0.6c0.4,0.1,0.9,0.2,1.4,0.2c0.6,0,1.1-0.1,1.5-0.3c0.4-0.2,0.8-0.5,1-0.9c0.3-0.4,0.4-0.9,0.4-1.4
		c0-0.4-0.1-0.8-0.2-1.1C8.1,12.4,7.9,12.1,7.7,11.9z"/>
	<path class="st1" d="M14.4,9.3c0.2,0,0.3-0.1,0.4-0.2c0.1-0.2,0.1-0.4,0.1-0.6c0-0.2,0-0.4-0.1-0.5c-0.1-0.2-0.2-0.3-0.4-0.3h-4.2
		c-0.2,0-0.4,0-0.6,0.1C9.4,7.9,9.4,8,9.4,8.2v7.5c0,0.2,0.1,0.3,0.3,0.4c0.2,0.1,0.4,0.1,0.6,0.1h4.2c0.2,0,0.3-0.1,0.4-0.3
		c0.1-0.2,0.1-0.3,0.1-0.5c0-0.2,0-0.4-0.1-0.6c-0.1-0.2-0.2-0.2-0.4-0.2h-3.2v-2H13c0.2,0,0.3-0.1,0.4-0.2c0.1-0.2,0.1-0.3,0.1-0.5
		c0-0.2,0-0.4-0.1-0.5c-0.1-0.1-0.2-0.2-0.4-0.2h-1.8v-2H14.4z"/>
	<path class="st1" d="M19.9,7.9c-0.4-0.2-0.9-0.3-1.5-0.3s-1,0.1-1.5,0.3c-0.4,0.2-0.8,0.5-1,0.9c-0.3,0.4-0.4,1-0.4,1.6v3.1
		c0,0.7,0.1,1.2,0.4,1.6c0.3,0.4,0.6,0.7,1,0.9c0.4,0.2,0.9,0.3,1.5,0.3s1-0.1,1.5-0.3c0.4-0.2,0.8-0.5,1-0.9c0.3-0.4,0.4-1,0.4-1.6
		v-3.1c0-0.7-0.1-1.2-0.4-1.6C20.7,8.4,20.4,8.1,19.9,7.9z M19.5,13.6c0,0.4-0.1,0.7-0.3,0.9c-0.2,0.2-0.5,0.3-0.8,0.3
		s-0.6-0.1-0.8-0.3c-0.2-0.2-0.3-0.5-0.3-0.9v-3.1c0-0.4,0.1-0.7,0.3-0.9c0.2-0.2,0.4-0.3,0.8-0.3s0.6,0.1,0.8,0.3
		c0.2,0.2,0.3,0.5,0.3,0.9V13.6z"/>
</g>
</svg>
