<?xml version="1.0" encoding="utf-8"?>
<!-- Generator: Adobe Illustrator 26.0.1, SVG Export Plug-In . SVG Version: 6.00 Build 0)  -->
<svg version="1.1" id="Layer_1" xmlns="http://www.w3.org/2000/svg" xmlns:xlink="http://www.w3.org/1999/xlink" x="0px" y="0px"
	 viewBox="0 0 24 24" style="enable-background:new 0 0 24 24;" xml:space="preserve">
<style type="text/css">
	.st0{fill:#018343;}
</style>
<g>
	<path class="st0" d="M12.9,21.1c0.1-1.4-0.3-2.8-0.7-4.1c-0.1-0.2-0.1-0.4-0.2-0.6c0-0.1-0.1-0.2-0.1-0.3c0.1-0.5,0.1-0.9,0.3-1.3
		l0.1-0.3l0.5,0.8c-0.1-0.2-0.2-0.4-0.2-0.6c-0.2-0.3-0.2-0.5-0.1-0.8c0.1-0.2,0.1-0.4,0.2-0.6c0-0.1,0.1-0.2,0.1-0.3l0.1-0.3
		l0.4,0.7c-0.1-0.2-0.1-0.3-0.2-0.5C13,12.5,12.9,12.3,13,12c0.3-1.2,0.7-2.4,1.1-3.5c1-2.4,2-4.2,3.3-5.8c0.2-0.2,0.4-0.5,0.6-0.7
		c0.1-0.1,0.1-0.2,0.2-0.2c-0.8,0-1.7,0-2.5,0c-4.3,0-8.7,0-13,0c-1.2,0-2.1,0.9-2.1,2.1c0,5.8,0,11.5,0,17.3c0,0.3,0,0.5,0.1,0.8
		c0.3,0.8,1,1.3,2,1.3c3.4,0,6.7,0,10.1,0c0-0.2,0-0.3,0-0.5C12.9,22.2,12.9,21.6,12.9,21.1z"/>
	<path class="st0" d="M21.5,0.9c-0.6-0.2-1.3-0.1-2,0.3c-0.3,0.1-0.5,0.3-0.7,0.5l-0.2,0.2c-0.1,0.1-0.2,0.2-0.3,0.3
		c-0.2,0.2-0.4,0.5-0.6,0.7c-1.3,1.5-2.3,3.3-3.3,5.7c-0.5,1.1-0.9,2.3-1.1,3.5c-0.1,0.2,0,0.4,0,0.6c0.2,0.5,0.4,1,0.5,1.6l0.1,0.7
		l-0.9-1.7c0,0,0,0,0,0c-0.1,0.2-0.1,0.4-0.2,0.6c-0.1,0.2-0.1,0.4,0,0.6c0.2,0.4,0.4,1.2,0.4,1.5l0,0.5L12.4,15
		c-0.1,0.3-0.1,0.6-0.2,1c0,0,0,0.1,0,0.2c0.1,0.2,0.2,0.4,0.3,0.7c0.4,1.3,0.8,2.7,0.7,4.2c0,0.5,0,1.1,0,1.6c0,0.1,0,0.2,0,0.3
		c0-0.1,0-0.2,0-0.4c0-1.5,0.1-3,0.5-4.8c0.8-4.4,2.5-8.6,5.1-12.3c0.7-1,1.4-1.8,2.1-2.5C21,3,21,3,21.1,3l0.1,0L21.2,3
		c0,0,0.1,0.1,0.1,0.1c0,0.1,0,0.1-0.1,0.1c-0.5,0.6-0.8,1.1-1.1,1.6c-2.7,4.3-4.6,8.8-5.6,13.4l0,0.1c0,0.2-0.1,0.4-0.1,0.6
		c0.5-0.7,1.1-1.3,1.8-1.7c0.7-0.4,1.1-0.9,1.5-1.5c0,0,0.1-0.1,0.1-0.1l0.2-0.3c0.4-0.5,0.7-1,1.1-1.6c-0.8,0.2-1.6,0.4-2.3,0.6
		l-1.2,0.4l1-0.6c1.1-0.6,2-1.1,3-1.4c0.1,0,0.2-0.1,0.3-0.2c0.7-1.1,1.2-2,1.6-2.8c0.7-1.3,1.4-2.9,1.7-4.7c0.2-1.1,0.1-2-0.2-2.8
		C22.6,1.6,22.1,1.1,21.5,0.9z"/>
</g>
</svg>
